<?xml version="1.0" standalone="no"?>
<!DOCTYPE svg PUBLIC "-//W3C//DTD SVG 20010904//EN"
 "http://www.w3.org/TR/2001/REC-SVG-20010904/DTD/svg10.dtd">
<svg version="1.0" xmlns="http://www.w3.org/2000/svg"
 width="799.000000pt" height="854.000000pt" viewBox="0 0 799.000000 854.000000"
 preserveAspectRatio="xMidYMid meet">

<g transform="translate(0.000000,854.000000) scale(0.100000,-0.100000)"
fill="#000000" stroke="none">
<path d="M7225 8434 c-33 -14 -83 -33 -110 -43 -28 -10 -102 -41 -165 -69 -63
-28 -194 -85 -290 -127 -96 -42 -193 -85 -215 -95 -22 -10 -74 -33 -115 -50
-69 -30 -128 -57 -348 -161 -45 -21 -85 -39 -88 -39 -3 0 -52 -22 -107 -49
-56 -27 -154 -72 -217 -101 -63 -30 -126 -61 -140 -70 -14 -10 -36 -21 -49
-25 -13 -4 -51 -22 -85 -41 -33 -18 -94 -49 -134 -69 l-73 -36 -672 237 c-720
254 -757 268 -757 284 0 18 -30 11 -56 -14 -43 -40 -2064 -1060 -2152 -1086
-33 -10 -69 -40 -169 -142 -71 -71 -130 -132 -133 -136 -2 -4 48 44 111 106
l115 113 815 -287 c447 -157 816 -288 819 -291 5 -5 -403 -407 -497 -489 l-53
-46 -819 288 c-811 285 -820 289 -803 309 9 11 0 4 -21 -14 -21 -20 -37 -44
-36 -55 0 -17 3 -15 11 7 5 16 15 26 22 24 6 -2 375 -132 819 -288 804 -283
808 -284 802 -309 -4 -14 -9 -28 -13 -32 -5 -5 -1203 410 -1575 546 -43 16
-67 21 -64 13 2 -6 370 -141 818 -298 733 -258 814 -289 817 -309 3 -18 0 -22
-15 -18 -10 3 -294 103 -632 222 -338 119 -621 216 -628 216 -8 0 -22 -8 -31
-17 -15 -15 -17 -64 -13 -577 1 -308 7 -569 11 -581 4 -11 18 -30 31 -41 15
-13 276 -110 653 -242 346 -122 631 -223 633 -225 3 -4 21 -2089 18 -2094 -1
-2 -346 119 -768 267 -422 149 -778 270 -791 270 -51 0 -50 34 -42 -927 4
-637 10 -901 18 -916 27 -52 -42 -24 906 -357 l692 -243 0 -40 c0 -21 -4 -37
-9 -35 -5 1 -374 131 -820 288 l-811 285 -1 470 c-1 259 -4 515 -8 570 l-7
100 -7 -165 c-7 -141 -6 -394 6 -896 2 -118 11 -144 50 -144 18 0 1547 -533
1622 -565 17 -7 43 -16 59 -20 15 -3 48 -15 72 -26 l43 -21 138 71 c76 39 298
152 493 250 310 157 394 202 477 259 10 6 -47 -21 -127 -62 -714 -363 -984
-496 -996 -492 -21 8 -19 125 1 132 12 5 15 28 15 120 0 113 0 115 25 126 l26
12 -7 725 c-4 399 -8 727 -10 729 -1 2 -12 -1 -23 -8 -21 -11 -21 -9 -21 96 0
98 -1 106 -18 102 -18 -5 -19 32 -26 1041 -6 931 -5 1047 9 1057 12 9 15 34
15 123 0 111 0 111 27 124 l26 12 -6 215 c-4 118 -7 295 -7 393 0 174 -1 178
-20 172 -19 -6 -20 -2 -20 100 0 102 -1 106 -20 100 -17 -6 -20 -2 -20 29 0
19 5 46 11 59 10 22 558 555 598 583 9 6 446 228 971 494 525 265 1031 521
1123 568 137 69 170 83 178 71 5 -8 10 -201 11 -429 1 -228 3 -386 5 -351 3
45 9 69 21 79 9 7 11 11 5 7 -19 -9 -16 16 7 53 11 18 20 38 20 45 0 26 24 47
47 41 l22 -6 -20 -42 c-12 -22 -30 -51 -41 -62 l-19 -22 38 8 c51 9 135 53
151 79 8 14 21 21 40 19 30 -2 130 51 169 90 13 13 30 21 39 18 17 -7 115 46
150 81 13 12 32 23 44 23 27 0 127 57 134 77 5 13 4 14 -9 3 -22 -18 -19 -7
20 70 36 72 40 76 64 61 11 -7 10 -16 -9 -47 -13 -22 -30 -48 -39 -59 -15 -18
-15 -19 1 -6 10 7 25 11 34 7 8 -3 31 5 52 19 20 14 41 25 46 25 5 0 24 16 43
36 21 23 38 34 48 30 21 -8 116 47 134 76 l14 23 -23 -20 c-26 -23 -26 -20 15
63 19 41 35 62 47 62 29 0 28 -15 -3 -66 -17 -27 -24 -42 -16 -35 9 7 22 11
29 8 18 -6 117 50 151 86 15 17 33 27 42 24 17 -7 122 54 142 83 8 11 25 20
38 20 28 0 115 52 129 78 9 15 8 16 -9 2 -21 -17 -20 -14 18 58 20 38 33 52
43 48 9 -3 18 -6 20 -6 2 0 -8 -19 -23 -42 -15 -24 -19 -37 -10 -29 9 7 23 11
32 8 16 -7 115 56 129 81 7 14 6 15 -5 5 -26 -26 -28 -12 -3 37 17 34 31 50
45 50 23 0 24 -9 4 -36 -8 -10 -15 -22 -15 -25 0 -7 70 15 104 33 34 17 86 71
86 88 0 9 7 39 15 67 11 38 21 52 38 57 41 10 74 44 83 83 10 49 13 93 7 93
-3 0 -30 -14 -59 -31 -30 -17 -54 -26 -54 -20 0 26 -45 127 -82 181 -22 34
-39 62 -37 64 2 2 23 13 47 25 64 32 59 42 -34 66 -58 15 -58 15 -84 -10 l-25
-24 -58 21 c-31 11 -57 25 -57 29 0 17 -66 8 -125 -17z m317 -112 c52 -58 94
-139 114 -221 l18 -75 -24 -15 c-100 -69 -932 -534 -1345 -753 l-310 -164 -3
29 c-2 16 1 34 7 40 18 18 12 74 -16 144 -34 87 -71 143 -145 218 l-58 61 43
21 44 21 55 -56 c74 -77 109 -131 147 -231 35 -92 49 -111 80 -111 31 0 26 19
-8 31 -20 7 -32 21 -40 47 -7 20 -15 42 -17 49 -3 7 12 5 43 -7 47 -18 48 -19
47 -59 -1 -42 9 -54 20 -25 12 32 5 82 -20 144 -33 81 -72 140 -142 212 l-56
57 45 20 44 20 43 -42 c63 -61 118 -145 152 -233 41 -107 70 -135 106 -100 33
33 35 64 9 138 -31 88 -73 156 -144 231 -30 31 -52 58 -50 60 2 1 22 11 43 20
l39 18 39 -38 c59 -56 113 -141 149 -230 33 -83 53 -113 77 -113 17 0 38 24
52 58 21 51 -61 221 -154 320 -23 24 -42 47 -44 51 -1 4 16 16 38 26 l41 18
35 -34 c54 -52 111 -140 142 -222 28 -72 57 -117 76 -117 25 0 56 45 56 80 0
75 -78 222 -159 297 -25 23 -43 44 -41 45 3 2 23 12 44 21 l39 18 44 -43 c56
-55 95 -115 133 -207 24 -60 60 -111 76 -111 2 0 15 11 29 25 17 18 25 37 25
61 0 54 -74 196 -137 264 -29 32 -53 60 -53 63 0 3 19 12 41 21 l42 17 29 -28
c45 -42 101 -130 133 -208 34 -83 51 -105 79 -105 30 0 60 53 52 92 -12 62
-77 178 -132 238 l-56 60 43 20 44 19 33 -32 c45 -42 96 -123 127 -199 41
-100 73 -121 109 -72 38 53 -3 172 -99 285 -50 59 -53 65 -37 77 36 27 62 26
94 -4 44 -43 82 -101 113 -174 34 -83 65 -116 92 -101 34 18 49 67 33 110 -26
74 -52 120 -104 182 l-53 64 61 27 c34 15 68 27 77 27 9 1 32 -16 51 -37z
m-228 -18 c12 -5 16 -20 16 -63 l0 -56 -45 45 c-53 54 -58 80 -16 80 16 0 36
-3 45 -6z m91 -86 c41 -55 75 -117 75 -138 0 -13 -103 30 -117 48 -11 15 -19
152 -9 152 2 0 25 -28 51 -62z m-291 2 c24 -9 26 -14 26 -67 l0 -57 -50 49
c-51 50 -60 69 -37 78 19 8 34 8 61 -3z m161 -187 c14 -31 24 -57 22 -59 -2
-2 -25 3 -50 12 -67 23 -87 55 -87 139 l0 67 44 -52 c25 -29 57 -77 71 -107z
m-351 101 c12 -5 16 -20 16 -62 l0 -56 -45 44 c-53 52 -59 80 -16 80 16 0 36
-3 45 -6z m118 -122 c16 -23 40 -67 53 -96 l23 -53 -54 20 c-71 26 -104 78
-104 163 l0 57 26 -24 c14 -13 39 -43 56 -67z m416 48 c44 -20 53 -42 30 -73
-22 -28 -53 -10 -75 44 -24 55 -19 58 45 29z m-724 -16 c12 -5 16 -21 16 -70
l0 -64 -42 48 c-24 26 -46 49 -50 50 -5 2 -8 12 -8 23 0 15 7 19 34 19 19 0
41 -3 50 -6z m-427 -40 c-3 -3 -12 -4 -19 -1 -8 3 -5 6 6 6 11 1 17 -2 13 -5z
m586 -156 c21 -41 37 -77 37 -81 0 -3 -22 2 -50 11 -40 14 -55 26 -80 65 -25
40 -30 57 -30 110 l1 62 43 -47 c23 -25 59 -80 79 -120z m415 62 c-3 -30 -7
-35 -28 -35 -20 0 -30 10 -47 45 -12 25 -22 48 -23 52 0 3 23 -1 50 -10 50
-16 51 -17 48 -52z m-774 44 c12 -5 16 -20 16 -62 l0 -56 -50 49 c-27 27 -50
55 -50 62 0 14 55 18 84 7z m-409 -34 c-3 -5 -14 -10 -23 -9 -14 0 -13 2 3 9
27 11 27 11 20 0z m543 -105 c31 -49 72 -133 72 -149 0 -2 -22 3 -48 11 -42
14 -54 24 -85 74 -31 50 -37 68 -37 115 l0 55 29 -23 c17 -13 47 -50 69 -83z
m460 25 c8 0 0 -49 -10 -62 -21 -27 -52 -5 -76 51 l-21 50 52 -19 c29 -11 53
-20 55 -20z m-794 24 c12 -5 16 -20 16 -63 l0 -56 -45 45 c-53 54 -58 80 -16
80 16 0 36 -3 45 -6z m139 -138 c38 -56 83 -154 74 -162 -2 -2 -23 3 -48 12
-37 13 -50 25 -86 83 -38 60 -43 76 -43 127 l0 58 31 -30 c17 -16 49 -56 72
-88z m-546 98 c-3 -3 -12 -4 -19 -1 -8 3 -5 6 6 6 11 1 17 -2 13 -5z m211 -50
c20 -6 22 -13 22 -68 l0 -61 -51 52 c-68 68 -57 99 29 77z m755 -20 c40 -14
47 -20 47 -42 -1 -69 -48 -66 -80 5 -20 46 -22 53 -17 53 2 0 24 -7 50 -16z
m-1156 -20 c-3 -3 -12 -4 -19 -1 -8 3 -5 6 6 6 11 1 17 -2 13 -5z m546 -108
c38 -56 83 -154 74 -162 -2 -2 -23 3 -48 12 -37 13 -50 25 -86 83 -38 60 -43
76 -43 127 l0 58 31 -30 c17 -16 49 -56 72 -88z m-586 98 c-3 -3 -12 -4 -19
-1 -8 3 -5 6 6 6 11 1 17 -2 13 -5z m237 -44 c24 -9 26 -14 26 -67 l0 -58 -45
45 c-67 68 -58 110 19 80z m769 -26 c44 -15 47 -18 47 -50 0 -67 -58 -52 -83
21 -9 25 -15 45 -13 45 1 0 23 -7 49 -16z m-1168 -14 c-3 -5 -16 -10 -28 -9
-20 1 -20 2 3 9 14 4 26 8 28 9 2 1 0 -3 -3 -9z m555 -111 c21 -31 50 -83 63
-117 l25 -60 -39 13 c-53 19 -79 34 -79 46 0 6 -18 37 -40 69 -35 52 -40 66
-40 116 l0 58 36 -35 c20 -18 53 -59 74 -90z m-332 -4 l3 -60 -45 45 c-26 24
-46 52 -46 63 0 15 7 18 43 15 l42 -3 3 -60z m1352 55 c12 -7 10 -16 -15 -51
-17 -23 -40 -49 -53 -57 -21 -14 -20 -10 10 52 35 70 35 71 58 56z m-546 -57
c3 -7 1 -24 -4 -38 -17 -46 -57 -26 -83 41 l-16 42 49 -16 c27 -9 52 -22 54
-29z m-665 -93 c37 -54 85 -159 77 -167 -2 -3 -23 1 -46 8 -36 11 -48 23 -95
96 -50 76 -55 89 -55 140 l0 57 41 -39 c23 -22 58 -65 78 -95z m-564 110 c-3
-5 -16 -10 -28 -9 -20 1 -20 2 3 9 14 4 26 8 28 9 2 1 0 -3 -3 -9z m467 -154
c23 -33 54 -94 70 -135 36 -94 53 -121 77 -121 12 0 20 -9 23 -23 4 -22 -14
-33 -239 -145 l-243 -122 1 88 c0 68 2 82 10 62 26 -64 73 -79 102 -31 9 16
17 40 17 54 0 36 -53 160 -94 223 -20 30 -36 60 -36 67 0 20 -37 60 -48 53 -5
-3 -22 4 -37 16 l-27 21 43 22 43 23 54 -47 c62 -53 129 -157 162 -251 26 -72
54 -110 82 -110 28 0 21 20 -11 31 -20 7 -32 21 -40 47 -7 20 -15 43 -18 50
-3 8 13 5 49 -9 29 -11 55 -23 58 -25 2 -3 -1 -19 -8 -36 -13 -34 -7 -52 9
-28 22 34 20 62 -7 132 -36 93 -98 189 -163 253 l-51 49 42 22 43 22 48 -46
c27 -26 67 -74 89 -106z m-236 90 c3 -7 4 -35 2 -61 l-3 -47 -47 44 c-63 57
-63 78 -3 78 30 0 48 -5 51 -14z m1364 -7 c0 -27 -48 -92 -83 -110 -13 -8 -10
5 15 56 22 44 38 65 50 65 10 0 18 -5 18 -11z m-556 -46 c9 -22 -12 -63 -33
-63 -24 0 -37 16 -55 67 l-14 41 48 -16 c27 -9 52 -22 54 -29z m-670 -93 c23
-36 52 -91 63 -122 l22 -57 -52 20 c-29 11 -52 21 -52 22 -1 1 -22 35 -48 74
-43 67 -47 78 -47 135 l0 62 36 -35 c20 -18 55 -63 78 -99z m840 -56 c14 -5
13 -11 -5 -46 -18 -35 -79 -101 -87 -93 -4 4 67 145 72 145 3 0 11 -3 20 -6z
m-579 -34 c44 -17 29 -95 -16 -83 -15 4 -59 79 -59 100 0 6 37 -3 75 -17z
m-439 -35 c14 -25 35 -68 45 -96 l20 -51 -25 6 c-77 19 -76 18 -76 106 0 44 2
80 5 80 2 0 16 -20 31 -45z m654 -142 c0 -34 -94 -143 -123 -143 -9 0 -9 2 -1
8 6 4 28 39 47 79 31 60 40 70 57 66 11 -3 20 -7 20 -10z m-582 -54 c2 -13 -3
-31 -10 -41 -21 -26 -52 -6 -75 50 l-21 50 51 -17 c41 -14 53 -23 55 -42z
m383 -39 c17 0 -39 -97 -72 -124 -17 -15 -33 -25 -36 -23 -2 3 13 39 34 81 25
50 43 74 51 71 8 -3 18 -5 23 -5z m-203 -99 c27 -17 -38 -115 -99 -151 -9 -5
2 26 28 76 45 86 49 90 71 75z m-2675 -657 c26 -9 47 -19 47 -23 0 -7 -243
-243 -482 -470 l-67 -64 -52 19 c-28 11 -52 21 -52 24 -3 7 541 530 551 530 5
0 29 -7 55 -16z m-1903 -249 c19 -7 28 -14 19 -14 -8 -1 -26 -12 -38 -25 -51
-54 -16 -162 66 -205 33 -17 51 -14 78 14 19 18 25 35 25 65 0 47 -11 73 -48
113 l-27 28 65 -24 c36 -13 255 -91 487 -172 l422 -148 -29 -34 c-33 -37 -37
-67 -16 -117 36 -87 123 -124 165 -70 35 45 24 114 -27 167 -14 15 -23 27 -19
27 4 0 50 -16 103 -36 52 -20 106 -37 118 -38 34 -4 46 -15 46 -39 -1 -20 -2
-20 -16 6 -8 15 -19 27 -25 27 -6 0 -6 -7 1 -19 16 -30 13 -230 -3 -237 -8 -3
-226 70 -485 161 -495 173 -530 182 -593 149 -70 -36 -119 -125 -119 -218 0
-60 29 -164 62 -223 37 -66 120 -148 178 -177 25 -13 249 -94 498 -182 410
-143 455 -161 468 -186 20 -38 19 -211 -1 -228 -12 -10 -36 -5 -124 26 -107
38 -108 39 -81 52 61 29 61 117 2 180 -54 58 -91 65 -127 26 -39 -42 -31 -119
18 -173 14 -16 17 -23 7 -19 -8 2 -226 78 -483 169 -435 152 -467 165 -449
179 46 37 53 89 22 149 -37 73 -94 99 -145 65 -48 -31 -42 -127 11 -173 14
-12 24 -25 21 -27 -9 -9 -75 24 -85 43 -11 21 -27 1100 -17 1132 7 24 25 25
75 6z m24 -51 c12 -4 13 -11 4 -28 -10 -23 -1 -48 34 -98 9 -13 9 -20 -1 -32
-29 -34 -82 32 -83 104 -1 55 10 68 46 54z m84 -59 c2 -19 -1 -35 -5 -36 -4 0
-15 -2 -23 -4 -11 -2 -17 6 -18 26 -2 22 3 32 20 39 13 5 23 9 23 9 1 1 2 -15
3 -34z m-8 -105 c0 -11 -7 -20 -15 -20 -17 0 -18 2 -9 24 9 23 24 20 24 -4z
m1230 -87 c58 -21 55 -18 41 -52 l-13 -29 -46 15 c-62 21 -68 27 -54 58 14 30
14 30 72 8z m28 -121 c4 -26 3 -27 -59 -5 -39 14 -49 22 -49 40 l0 22 53 -18
c39 -13 53 -23 55 -39z m-303 10 c6 -4 10 -26 10 -49 1 -31 7 -49 23 -63 18
-17 20 -24 10 -44 -9 -21 -13 -23 -30 -13 -23 14 -58 85 -58 116 0 25 17 61
28 61 4 0 12 -4 17 -8z m-734 -38 c-76 -97 -31 -316 92 -438 67 -67 105 -87
179 -93 50 -5 63 -3 97 20 101 67 124 215 57 363 -14 30 -22 54 -19 54 3 0
135 -46 293 -101 l288 -101 4 -287 c3 -157 4 -287 4 -288 -1 0 -201 69 -446
156 -521 183 -531 188 -611 331 -51 90 -69 229 -40 312 17 52 63 98 96 98 l26
0 -20 -26z m829 -34 c0 -18 -25 -34 -40 -25 -17 10 -18 45 -2 54 20 11 42 -4
42 -29z m-670 15 c0 -55 116 -198 193 -240 34 -18 48 -35 29 -35 -19 0 -102
63 -146 110 -62 66 -116 180 -86 180 6 0 10 -7 10 -15z m55 -184 c63 -68 131
-116 187 -133 38 -11 46 -26 32 -62 -9 -23 -34 -20 -85 12 -98 63 -216 218
-234 307 -5 25 -2 22 19 -17 14 -25 51 -73 81 -107z m-110 92 c12 -50 65 -126
141 -203 l74 -76 -85 -42 -85 -42 -46 45 c-54 54 -100 148 -115 234 -6 34 -10
63 -8 65 13 12 105 53 110 50 4 -2 10 -16 14 -31z m962 -80 c-2 -21 -4 -6 -4
32 0 39 2 55 4 38 2 -18 2 -50 0 -70z m-247 73 c0 -15 -18 -31 -26 -23 -7 7 7
37 17 37 5 0 9 -6 9 -14z m-940 -166 c17 -72 61 -150 121 -211 26 -27 42 -49
35 -49 -20 0 -94 79 -124 134 -31 55 -63 164 -61 212 l1 29 7 -30 c5 -16 14
-55 21 -85z m1240 -97 c0 -93 3 -259 7 -371 6 -197 6 -202 -13 -196 -10 4 -31
20 -45 35 -15 14 -33 29 -40 31 -10 3 -14 65 -17 289 l-4 284 28 15 c38 20 54
35 54 53 0 15 9 27 22 27 4 0 8 -75 8 -167z m-670 77 c0 -5 -9 -6 -20 -3 -11
3 -20 9 -20 13 0 5 9 6 20 3 11 -3 20 -9 20 -13z m-738 -281 c-2 -27 3 -44 23
-67 22 -26 24 -35 15 -52 -14 -27 -24 -25 -53 10 -30 35 -41 78 -32 121 5 24
11 29 28 27 19 -3 22 -9 19 -39z m83 -19 c13 -41 -26 -56 -46 -19 -9 17 -8 23
2 30 22 14 37 10 44 -11z m-5 -104 c0 -15 -18 -31 -26 -23 -7 7 7 37 17 37 5
0 9 -6 9 -14z m953 -202 c11 -4 14 -16 10 -43 -4 -29 0 -43 20 -67 21 -25 23
-33 13 -52 -11 -21 -13 -21 -35 -6 -43 30 -68 133 -39 162 14 14 12 14 31 6z
m326 -30 c6 -15 9 -29 5 -33 -4 -3 -9 0 -11 7 -3 7 -11 19 -19 26 -18 18 -18
26 -1 26 8 0 19 -12 26 -26z m-237 -30 c10 -21 9 -27 -3 -35 -22 -14 -28 -11
-41 17 -10 21 -9 27 3 35 22 14 28 11 41 -17z m245 -131 c-2 -21 -4 -4 -4 37
0 41 2 58 4 38 2 -21 2 -55 0 -75z m-251 31 c-3 -9 -6 -18 -6 -20 0 -2 -7 -4
-15 -4 -13 0 -13 3 -3 20 15 24 33 27 24 4z m221 -168 c1 -1 6 -474 9 -1050
l7 -1047 -54 21 c-30 12 -55 22 -55 23 -1 1 -5 473 -9 1050 l-7 1047 54 -21
c29 -11 54 -22 55 -23z m-1607 -1557 c0 -5 -5 -9 -11 -9 -20 0 -48 -45 -49
-78 -1 -98 101 -185 162 -138 45 34 42 119 -7 172 -14 15 -25 28 -25 30 0 2
44 -12 98 -31 53 -19 319 -113 590 -208 452 -159 490 -174 468 -186 -26 -14
-46 -50 -46 -82 0 -58 72 -149 117 -149 85 0 109 108 41 186 -17 19 -28 34
-25 34 23 0 276 -97 292 -112 19 -17 20 -34 23 -253 3 -203 1 -236 -12 -241
-12 -4 -493 157 -501 168 -1 2 -21 32 -45 68 -68 103 -212 238 -305 286 -141
73 -296 82 -400 23 -127 -72 -197 -184 -219 -356 -46 -339 171 -746 482 -902
172 -87 314 -79 450 25 l43 33 202 -71 c111 -38 221 -77 244 -85 23 -8 47 -21
54 -30 9 -11 14 -81 17 -249 4 -210 3 -234 -12 -240 -9 -3 -79 15 -156 42
l-139 48 25 25 c49 49 44 119 -15 181 -42 44 -75 51 -116 24 -35 -23 -41 -71
-16 -128 11 -25 24 -46 29 -46 6 0 12 -7 15 -15 7 -15 17 -19 -735 246 -416
146 -436 154 -413 169 61 37 57 121 -10 187 -50 50 -83 55 -120 18 -35 -34
-33 -88 5 -148 16 -26 28 -47 26 -47 -18 0 -75 33 -81 47 -10 24 -23 1784 -13
1804 6 14 14 15 48 7 22 -6 40 -14 40 -19z m13 -80 c-5 -33 -2 -44 20 -67 22
-23 24 -30 13 -49 -11 -22 -13 -22 -35 -7 -61 43 -70 182 -11 167 15 -4 17
-12 13 -44z m80 -21 c6 -20 -6 -37 -24 -38 -14 0 -31 31 -25 45 8 23 43 18 49
-7z m-10 -98 c-3 -11 -12 -20 -19 -20 -12 0 -12 4 -2 20 7 11 16 20 19 20 4 0
5 -9 2 -20z m1180 -280 c8 0 7 -4 -1 -12 -20 -20 -14 -65 13 -94 19 -21 22
-30 14 -45 -5 -11 -14 -19 -19 -19 -25 0 -70 77 -70 120 0 33 19 62 37 56 8
-3 20 -6 26 -6z m-843 -70 c-17 -22 -35 -42 -40 -45 -5 -3 -23 -42 -41 -88
-30 -77 -32 -90 -32 -212 -1 -114 3 -141 27 -225 111 -372 423 -649 694 -615
l57 7 -27 -21 c-31 -25 -67 -26 -159 -7 -282 60 -541 374 -604 732 -19 108
-19 189 0 277 26 124 92 237 138 237 16 0 15 -5 -13 -40z m908 28 c17 -17 15
-45 -4 -52 -23 -9 -24 -8 -35 21 -7 20 -6 28 3 35 17 10 22 10 36 -4z m-566
-40 c97 -50 227 -172 295 -278 40 -63 43 -70 53 -181 6 -63 19 -169 29 -234
10 -66 17 -121 16 -123 -5 -5 -60 70 -176 238 -83 122 -140 219 -215 371 -56
113 -105 215 -108 227 -11 32 10 28 106 -20z m-307 -39 c-19 -54 -19 -205 -1
-301 53 -267 264 -552 494 -667 71 -36 200 -66 246 -57 l31 6 -27 -24 c-26
-24 -27 -24 -100 -9 -197 41 -403 204 -537 426 -121 200 -183 475 -134 599 27
72 51 94 28 27z m1198 21 c3 -11 2 -20 -2 -20 -3 0 -12 9 -19 20 -10 16 -10
20 2 20 7 0 16 -9 19 -20z m-1391 -112 c-129 -385 156 -948 548 -1084 59 -21
62 -23 30 -23 -81 -1 -220 62 -320 147 -67 56 -140 144 -140 167 0 8 -10 22
-23 32 -36 28 -93 142 -129 255 -30 97 -32 112 -32 248 0 134 2 150 28 215 24
63 51 115 59 115 2 0 -7 -33 -21 -72z m1068 65 c0 -14 -19 -38 -25 -32 -8 8 5
39 16 39 5 0 9 -3 9 -7z m327 -295 c-1 -57 -3 -11 -3 102 0 113 2 159 3 103 2
-57 2 -149 0 -205z m-988 -22 c69 -179 179 -325 340 -451 34 -26 59 -51 56
-54 -3 -3 -36 -24 -73 -47 -77 -49 -72 -50 -173 31 -171 137 -303 354 -345
563 -24 124 -24 124 58 176 l73 45 16 -92 c9 -51 31 -127 48 -171z m1041 -119
c0 -173 3 -490 7 -706 6 -363 5 -391 -10 -385 -14 5 -17 23 -17 116 0 60 -5
118 -11 129 -16 31 -42 59 -55 59 -17 0 -24 131 -24 458 0 307 2 322 44 322
28 0 36 38 36 173 0 128 3 147 22 147 4 0 8 -141 8 -313z m-1304 189 c29 -169
125 -366 244 -504 l59 -69 -35 -16 c-19 -10 -38 -17 -43 -17 -15 0 -100 117
-142 195 -67 124 -98 239 -106 385 -3 69 -3 122 1 119 4 -3 13 -45 22 -93z
m-6 -251 c54 -173 193 -373 317 -457 l23 -15 -24 -11 c-22 -10 -31 -6 -76 31
-163 132 -296 393 -316 618 -5 68 -4 78 12 87 18 10 20 4 31 -86 6 -53 21
-128 33 -167z m-119 70 c35 -193 157 -407 314 -552 76 -71 73 -84 -4 -23 -98
78 -210 239 -273 393 -34 83 -68 246 -67 314 l1 48 9 -60 c5 -33 14 -87 20
-120z m936 99 c69 -25 72 -28 88 -73 30 -82 43 -230 30 -329 -6 -48 -17 -100
-24 -116 -10 -24 -15 -27 -39 -21 -15 3 -41 23 -58 43 -27 31 -33 51 -48 142
-15 98 -26 180 -40 323 -7 67 -8 67 91 31z m-1003 -262 c56 -173 168 -340 301
-449 21 -18 36 -35 32 -39 -10 -11 -112 81 -175 159 -65 80 -138 215 -172 321
-24 74 -51 252 -41 276 3 8 11 -30 17 -85 6 -55 24 -137 38 -183z m1141 214
c27 -12 35 -21 35 -40 0 -14 11 -36 25 -50 22 -22 29 -24 45 -13 11 6 20 22
20 35 0 15 5 22 13 19 6 -2 28 -10 49 -17 l36 -13 4 -376 c2 -207 4 -376 3
-377 0 0 -82 28 -182 64 l-182 65 33 41 c74 90 105 181 113 326 6 107 -9 218
-41 312 -16 44 -17 43 29 24z m89 -32 c21 -8 21 -43 0 -51 -18 -7 -34 12 -34
40 0 18 8 21 34 11z m-163 -561 c-34 -66 -75 -108 -97 -99 -19 8 -19 8 1 18
11 5 40 34 65 64 24 30 46 54 47 54 2 0 -5 -17 -16 -37z m-1247 -74 c-21 -23
-17 -58 11 -94 20 -27 22 -35 12 -49 -36 -50 -107 80 -81 147 4 10 17 15 39
14 30 -2 32 -4 19 -18z m68 -45 c10 -21 9 -27 -3 -35 -22 -14 -28 -11 -41 17
-10 21 -9 27 3 35 22 14 28 11 41 -17z m-6 -100 c-3 -9 -6 -18 -6 -20 0 -2 -7
-4 -15 -4 -13 0 -14 4 -5 20 13 24 35 27 26 4z m1559 -83 c9 -19 11 -32 5 -36
-6 -3 -10 0 -10 8 0 8 -7 20 -15 27 -8 7 -12 16 -9 21 8 14 12 11 29 -20z m13
-253 l-2 -203 -6 195 c-5 185 -5 210 6 210 2 0 3 -91 2 -202z m-399 53 c9 -6
10 -11 2 -15 -19 -12 -12 -53 15 -85 21 -25 23 -34 14 -51 -13 -25 -22 -25
-43 -2 -29 32 -49 93 -42 129 6 34 25 42 54 24z m76 -51 c8 -24 -1 -40 -21
-40 -17 0 -28 24 -20 45 8 22 34 18 41 -5z m-5 -104 c0 -15 -18 -31 -26 -23
-7 7 7 37 17 37 5 0 9 -6 9 -14z m253 -172 c45 -15 47 -17 47 -54 l0 -39 -52
18 c-50 17 -53 20 -56 54 -4 42 -2 43 61 21z"/>
<path d="M2377 5092 c-23 -25 -21 -44 6 -75 27 -32 38 -33 60 -9 23 25 21 35
-9 71 -30 36 -35 37 -57 13z m53 -32 c13 -25 5 -40 -20 -40 -19 0 -36 32 -25
50 10 17 34 11 45 -10z"/>
<path d="M2367 1172 c-23 -25 -21 -44 6 -75 27 -32 38 -33 60 -9 23 25 21 35
-9 71 -30 36 -35 37 -57 13z m53 -32 c13 -25 5 -40 -20 -40 -19 0 -36 32 -25
50 10 17 34 11 45 -10z"/>
<path d="M4942 7050 c-43 -40 -63 -83 -69 -146 -6 -60 10 -97 51 -115 50 -23
121 46 146 140 31 119 -50 196 -128 121z m109 -27 c8 -21 5 -23 -24 -23 -46 0
-64 20 -35 37 31 17 49 13 59 -14z m-92 -42 c9 -6 12 -18 7 -37 -10 -37 -24
-54 -47 -54 -26 0 -31 15 -19 60 11 41 29 50 59 31z m96 -33 c-12 -58 -46
-118 -76 -133 -27 -15 -29 -14 -43 13 -14 28 -14 30 14 57 17 16 33 43 36 62
6 30 10 33 41 33 34 0 34 -1 28 -32z"/>
<path d="M995 6458 l-100 -103 103 100 c56 55 102 101 102 102 0 8 -12 -4
-105 -99z"/>
<path d="M4415 5904 c-242 -123 -642 -326 -890 -451 -480 -241 -509 -260 -533
-341 -7 -22 -12 -78 -12 -124 0 -100 14 -126 78 -148 l40 -13 904 458 c497
251 913 466 925 478 80 73 98 297 28 343 -63 41 -68 39 -540 -202z m539 181
c21 -22 31 -119 18 -188 -22 -120 42 -81 -966 -591 -714 -361 -912 -457 -931
-452 -32 8 -40 39 -39 142 1 115 25 163 107 208 150 83 1764 896 1779 896 9 0
23 -7 32 -15z m-1874 -891 c0 -3 -11 -22 -25 -42 -14 -20 -28 -54 -31 -74 -7
-39 -24 -53 -24 -19 0 44 49 141 71 141 5 0 9 -2 9 -6z m-73 -226 c-2 -13 -4
-5 -4 17 -1 22 1 32 4 23 2 -10 2 -28 0 -40z"/>
<path d="M4764 5964 c-58 -62 -71 -149 -28 -189 15 -14 31 -25 36 -25 16 0 48
20 48 31 0 6 -6 7 -12 3 -9 -5 -9 -2 1 9 15 18 26 23 16 7 -3 -5 -2 -10 4 -10
18 0 51 77 51 118 0 46 -31 92 -61 92 -11 0 -36 -16 -55 -36z m52 -40 c28 -7
31 -29 10 -78 -18 -43 -27 -48 -66 -35 -31 11 -32 13 -26 52 9 54 24 80 43 73
8 -3 26 -9 39 -12z"/>
<path d="M3211 5189 c-14 -6 -21 -15 -18 -24 4 -9 1 -12 -9 -8 -19 7 -53 -69
-54 -119 0 -53 40 -95 77 -82 15 5 28 15 31 23 3 9 0 11 -9 5 -12 -7 -12 -5 0
9 15 18 26 23 16 7 -3 -5 -1 -10 5 -10 17 0 50 80 50 123 0 28 -7 44 -26 62
-30 28 -29 28 -63 14z m13 -64 c20 -8 36 -21 36 -28 0 -14 -37 -97 -43 -97 -2
0 -18 5 -36 11 -23 8 -31 17 -31 35 0 24 25 94 33 94 3 0 21 -7 41 -15z"/>
<path d="M3032 6016 c-44 -47 -70 -131 -58 -181 8 -31 48 -75 69 -75 28 0 82
47 107 90 32 58 35 157 6 189 -33 36 -77 28 -124 -23z m118 5 c0 -5 3 -16 6
-25 5 -13 -1 -16 -29 -16 -39 0 -57 23 -29 39 22 13 52 14 52 2z m-80 -86 c0
-36 -32 -69 -58 -61 -23 8 -23 24 -1 83 7 20 11 22 34 11 16 -7 25 -19 25 -33z
m85 -12 c-10 -57 -42 -111 -75 -128 -29 -15 -30 -15 -45 14 -12 24 -12 32 -2
38 25 15 57 66 57 89 0 21 5 24 36 24 l36 0 -7 -37z"/>
<path d="M785 5300 c0 -382 1 -539 2 -347 2 191 2 503 0 695 -1 191 -2 34 -2
-348z"/>
<path d="M5484 5390 c0 -168 2 -236 3 -152 2 83 2 221 0 305 -1 83 -3 15 -3
-153z"/>
<path d="M5344 4938 c-48 -42 -74 -100 -74 -164 0 -102 68 -137 136 -69 45 46
64 91 64 157 0 43 -5 57 -27 80 -35 36 -54 35 -99 -4z m104 -36 c3 -18 -1 -22
-25 -22 -42 0 -59 21 -31 37 32 17 52 12 56 -15z m-85 -42 c10 -9 0 -49 -18
-73 -9 -13 -20 -17 -34 -12 -24 7 -26 27 -10 74 9 26 15 30 33 25 11 -3 25
-10 29 -14z m87 -25 c0 -56 -58 -145 -95 -145 -8 0 -20 11 -26 24 -10 21 -7
28 19 56 17 17 34 45 37 61 5 24 12 29 36 29 24 0 29 -4 29 -25z"/>
<path d="M788 3879 c-4 -1018 -2 -1378 10 -1594 7 -135 8 168 4 1055 -2 685
-6 1247 -8 1249 -2 2 -5 -317 -6 -710z"/>
<path d="M5494 3930 c0 -135 2 -190 3 -122 2 67 2 177 0 245 -1 67 -3 12 -3
-123z"/>
<path d="M2764 3188 c-88 -62 -117 -202 -54 -260 28 -26 63 -22 98 12 81 77
98 208 33 257 -23 18 -42 16 -77 -9z m96 -55 c0 -8 -13 -13 -34 -13 -45 0 -55
25 -18 44 24 13 28 13 40 -1 6 -9 12 -23 12 -30z m-87 -33 c9 -8 -15 -74 -31
-84 -18 -11 -42 6 -42 29 0 13 5 36 10 50 8 21 14 25 33 20 12 -4 26 -11 30
-15z m68 -89 c-23 -45 -58 -81 -78 -81 -7 0 -19 11 -25 25 -10 22 -8 29 15 53
15 15 31 42 38 59 8 24 18 33 37 35 23 3 27 -1 30 -24 2 -14 -6 -45 -17 -67z"/>
<path d="M5505 2655 c0 -209 1 -296 2 -193 2 103 2 274 0 380 -1 106 -2 22 -2
-187z"/>
<path d="M3985 2567 c-490 -249 -900 -462 -913 -472 -45 -38 -65 -93 -70 -192
-5 -113 12 -150 78 -171 l42 -13 901 457 c496 251 913 466 925 478 51 46 67
93 67 203 0 97 -1 104 -26 129 -19 18 -40 27 -70 30 -41 3 -104 -27 -934 -449z
m1003 393 c21 -40 11 -195 -15 -246 -12 -22 -27 -45 -35 -51 -21 -17 -1814
-923 -1826 -923 -7 0 -21 9 -32 20 -17 17 -20 33 -20 113 0 76 4 101 24 143
l24 51 413 211 c1195 608 1405 712 1429 710 14 -2 30 -13 38 -28z m-1888 -872
c0 -2 -14 -30 -30 -62 -17 -32 -30 -67 -30 -77 0 -11 -4 -19 -10 -19 -21 0 0
83 34 135 13 20 36 35 36 23z m-60 -213 c0 -19 -4 -35 -10 -35 -5 0 -10 16
-10 35 0 19 5 35 10 35 6 0 10 -16 10 -35z"/>
<path d="M4787 2855 c-40 -40 -64 -116 -49 -155 17 -43 45 -62 76 -51 14 6 26
15 26 21 0 6 -6 8 -12 4 -9 -5 -9 -2 1 9 15 19 26 23 15 6 -4 -7 -1 -10 6 -7
24 8 50 71 50 120 0 36 -5 52 -22 68 -31 28 -51 25 -91 -15z m42 -36 c37 -13
42 -47 12 -96 -19 -30 -21 -31 -56 -20 -35 10 -36 12 -30 45 9 47 23 82 33 82
5 0 23 -5 41 -11z"/>
<path d="M3206 2054 c-62 -62 -72 -164 -19 -199 20 -14 30 -15 49 -6 13 6 24
15 24 21 0 6 -6 8 -12 4 -9 -5 -9 -2 1 9 15 18 26 23 16 7 -3 -5 -2 -10 4 -10
18 0 51 77 51 118 0 45 -31 92 -60 92 -10 0 -34 -16 -54 -36z m50 -40 c28 -7
31 -29 10 -78 -18 -43 -27 -48 -66 -35 -31 11 -32 13 -26 52 9 54 24 80 43 73
8 -3 26 -9 39 -12z"/>
<path d="M5513 1950 c-1 -216 2 -286 9 -263 7 22 8 116 1 295 l-10 263 0 -295z"/>
<path d="M5364 1828 c-73 -65 -99 -190 -50 -242 34 -38 69 -34 116 13 75 74
88 204 25 245 -35 23 -50 20 -91 -16z m106 -41 c0 -15 -7 -18 -32 -15 -41 4
-46 23 -11 41 30 16 43 9 43 -26z m-86 -37 c10 -10 2 -48 -16 -72 -9 -12 -20
-16 -35 -12 -26 7 -28 25 -12 73 9 26 15 30 33 25 11 -3 25 -10 30 -14z m81
-56 c-16 -57 -60 -114 -88 -114 -7 0 -19 11 -25 25 -11 23 -9 29 18 55 17 16
33 43 36 59 5 25 12 30 38 33 17 2 33 2 34 1 2 -1 -4 -27 -13 -59z"/>
<path d="M5328 1509 c-76 -38 -138 -71 -138 -74 0 -3 46 17 103 44 56 28 116
55 134 61 17 7 34 18 37 26 3 8 4 14 3 13 -1 0 -64 -31 -139 -70z"/>
<path d="M4055 1156 c-69 -71 -84 -179 -33 -233 28 -30 59 -29 98 3 41 35 71
95 77 158 5 46 2 55 -22 84 -38 45 -68 43 -120 -12z m125 -27 c0 -13 -63 -20
-72 -7 -12 20 -10 23 20 34 21 9 30 8 40 -4 6 -9 12 -19 12 -23z m-106 -25
c20 -8 20 -36 1 -74 -11 -21 -20 -27 -35 -23 -29 8 -32 18 -19 63 12 39 22 46
53 34z m101 -41 c-9 -50 -40 -108 -67 -127 -30 -21 -35 -20 -51 10 -13 24 -11
28 15 54 15 16 31 42 34 59 6 29 18 37 58 40 16 1 17 -4 11 -36z"/>
<path d="M4518 1099 c-43 -21 -78 -41 -78 -44 0 -3 36 13 80 35 44 22 80 42
80 45 0 7 4 8 -82 -36z"/>
<path d="M4180 924 c-91 -47 -156 -82 -145 -78 11 3 34 10 50 15 17 5 48 20
70 34 22 13 75 42 118 65 42 22 77 42 77 45 0 7 11 12 -170 -81z"/>
<path d="M2764 507 c-58 -60 -81 -133 -64 -197 12 -45 49 -73 85 -64 33 8 89
74 103 123 41 135 -40 226 -124 138z m110 -13 c11 -28 6 -34 -28 -34 -38 0
-55 24 -28 39 25 15 49 13 56 -5z m-74 -60 c0 -19 -35 -84 -45 -84 -34 0 -43
11 -35 43 15 62 19 66 51 55 16 -5 29 -12 29 -14z m80 -13 c0 -53 -53 -144
-90 -154 -15 -4 -24 2 -34 20 -12 23 -10 28 15 54 15 15 32 44 39 63 10 30 16
36 41 36 22 0 29 -5 29 -19z"/>
</g>
</svg>
