<?xml version="1.0" standalone="no"?>
<!DOCTYPE svg PUBLIC "-//W3C//DTD SVG 20010904//EN"
 "http://www.w3.org/TR/2001/REC-SVG-20010904/DTD/svg10.dtd">
<svg version="1.0" xmlns="http://www.w3.org/2000/svg"
 width="512.000000pt" height="512.000000pt" viewBox="0 0 512.000000 512.000000"
 preserveAspectRatio="xMidYMid meet">
<metadata>
Created by potrace 1.15, written by Peter Selinger 2001-2017
</metadata>
<g transform="translate(0.000000,512.000000) scale(0.100000,-0.100000)"
fill="#000000" stroke="none">
<path d="M2264 4416 c-34 -8 -75 -21 -92 -30 -38 -19 -82 -72 -82 -97 0 -10
-6 -19 -13 -19 -7 0 -50 -18 -95 -40 -183 -88 -272 -249 -272 -488 0 -67 26
-273 45 -368 7 -30 6 -31 -19 -27 -17 4 -34 -1 -46 -12 -32 -29 -26 -105 19
-242 21 -65 41 -135 45 -156 4 -20 15 -45 26 -55 10 -10 33 -58 50 -107 66
-187 180 -365 316 -494 147 -138 279 -197 428 -189 94 5 176 37 281 113 164
117 339 366 406 579 12 39 30 80 40 91 10 11 20 34 24 50 4 17 15 53 26 80 37
99 69 228 69 281 0 46 -3 56 -25 70 -20 13 -28 14 -40 4 -18 -15 -18 -20 -1
115 53 408 15 569 -168 717 -112 89 -307 173 -501 213 -109 23 -342 29 -421
11z"/>
<path d="M3660 2695 c-232 -52 -431 -247 -484 -475 -20 -84 -20 -229 -1 -305
61 -234 236 -410 470 -470 138 -35 328 -12 460 58 86 46 221 183 263 269 126
257 81 548 -113 742 -126 126 -259 186 -430 192 -64 2 -123 -1 -165 -11z m251
-196 c97 -48 147 -127 156 -243 5 -66 8 -73 34 -89 l29 -16 0 -226 c0 -137 -4
-234 -10 -246 -10 -18 -24 -19 -319 -19 -275 0 -310 2 -322 17 -11 12 -15 67
-17 230 -3 229 1 253 46 268 16 5 20 18 24 83 3 51 12 91 26 118 21 40 81 102
122 124 59 31 167 31 231 -1z"/>
<path d="M3713 2389 c-43 -27 -73 -92 -73 -157 l0 -52 160 0 160 0 0 48 c0 61
-34 129 -79 159 -45 30 -123 31 -168 2z"/>
<path d="M3750 2022 c-12 -10 -22 -29 -21 -42 1 -71 18 -191 27 -200 6 -6 29
-10 50 -8 l39 3 7 75 c4 41 10 91 13 112 6 29 3 40 -14 57 -26 26 -71 27 -101
3z"/>
<path d="M1915 2058 c-152 -78 -271 -128 -495 -213 -418 -157 -521 -226 -619
-413 -71 -138 -106 -312 -118 -584 l-6 -158 1866 0 1867 0 0 64 c0 277 -57
557 -140 693 l-19 33 -45 -30 c-215 -145 -499 -160 -746 -38 -70 34 -102 58
-181 137 -78 79 -103 111 -137 181 -50 103 -71 178 -79 287 l-6 82 -46 -39
c-148 -122 -294 -180 -462 -180 -172 0 -330 64 -504 204 l-30 24 -100 -50z"/>
</g>
</svg>
