<?xml version="1.0" standalone="no"?>
<!DOCTYPE svg PUBLIC "-//W3C//DTD SVG 20010904//EN"
 "http://www.w3.org/TR/2001/REC-SVG-20010904/DTD/svg10.dtd">
<svg version="1.0" xmlns="http://www.w3.org/2000/svg"
 width="240.000000pt" height="240.000000pt" viewBox="0 0 240.000000 240.000000"
 preserveAspectRatio="xMidYMid meet">

<g transform="translate(0.000000,240.000000) scale(0.100000,-0.100000)"
fill="#000000" stroke="none">
<path d="M1895 2290 c-77 -20 -252 -65 -390 -99 -353 -87 -365 -91 -384 -126
-9 -17 -38 -69 -65 -117 l-48 -88 -141 0 -142 0 -332 -332 -333 -332 332 -333
333 -333 140 0 141 0 70 -122 69 -121 180 -47 c99 -26 250 -67 335 -90 292
-79 375 -100 391 -100 12 0 42 97 138 455 l122 455 -49 83 c-27 45 -59 100
-69 121 l-20 40 53 87 c96 159 92 123 34 342 -28 106 -57 212 -65 237 -7 25
-33 118 -56 207 -23 90 -44 161 -46 159 -2 -2 5 -41 17 -86 34 -134 16 -102
-25 45 -21 74 -41 134 -44 134 -3 -1 -69 -18 -146 -39z m-236 -418 c-34 -59
-95 -161 -134 -227 -39 -66 -100 -171 -135 -232 l-62 -113 -394 0 c-216 0
-395 4 -398 8 -3 5 109 124 247 266 l252 258 325 82 c179 46 332 85 340 88 31
10 19 -27 -41 -130z m362 -297 c38 -137 77 -279 86 -313 18 -63 17 -64 -8
-160 -91 -340 -165 -602 -170 -602 -3 0 -30 44 -60 98 -29 53 -61 109 -69 123
-61 105 -240 420 -254 447 l-17 33 46 75 c25 41 45 77 45 79 0 2 24 44 53 93
28 49 97 168 152 265 l100 176 14 -32 c7 -18 44 -144 82 -282z m-649 -567 c25
-40 74 -125 110 -188 36 -63 95 -166 132 -228 98 -168 117 -204 112 -210 -3
-2 -160 35 -348 83 l-343 87 -54 56 c-29 32 -141 146 -247 254 -107 108 -194
201 -194 207 0 8 119 11 394 11 l394 0 44 -72z"/>
<path d="M2081 2264 c0 -11 3 -14 6 -6 3 7 2 16 -1 19 -3 4 -6 -2 -5 -13z"/>
</g>
</svg>
