<?xml version="1.0" standalone="no"?>
<!DOCTYPE svg PUBLIC "-//W3C//DTD SVG 20010904//EN"
 "http://www.w3.org/TR/2001/REC-SVG-20010904/DTD/svg10.dtd">
<svg version="1.0" xmlns="http://www.w3.org/2000/svg"
 width="512.000000pt" height="512.000000pt" viewBox="0 0 512.000000 512.000000"
 preserveAspectRatio="xMidYMid meet">

<g transform="translate(0.000000,512.000000) scale(0.100000,-0.100000)"
fill="#000000" stroke="none">
<path d="M1676 4595 c-60 -21 -105 -64 -173 -161 -34 -49 -85 -121 -113 -161
l-51 -72 -552 -3 c-552 -3 -552 -3 -602 -26 -65 -30 -128 -92 -157 -156 l-23
-51 -3 -1440 c-2 -1317 -1 -1443 14 -1490 32 -97 101 -167 196 -201 61 -21
4635 -21 4696 0 95 34 164 104 196 201 15 47 16 173 14 1490 l-3 1440 -23 50
c-30 65 -92 128 -156 157 l-51 23 -552 3 -552 3 -51 72 c-28 40 -79 112 -113
162 -67 96 -125 148 -185 165 -24 6 -328 10 -877 10 -688 -1 -847 -3 -879 -15z
m1751 -244 c21 -27 63 -89 93 -137 61 -97 129 -172 181 -200 32 -18 71 -19
597 -24 l564 -5 23 -27 c15 -18 26 -46 30 -80 3 -29 5 -668 3 -1420 l-3 -1368
-33 -32 -32 -33 -2290 0 -2290 0 -32 33 -33 32 -3 1368 c-2 752 0 1391 3 1420
4 34 15 62 30 80 l23 27 564 5 c526 5 565 6 597 24 52 28 120 103 181 200 30
48 72 110 93 137 l39 49 828 0 828 0 39 -49z"/>
<path d="M2315 3970 c-288 -58 -512 -180 -712 -387 -320 -331 -445 -802 -332
-1248 30 -116 53 -177 115 -294 310 -587 1000 -853 1629 -629 302 108 566 339
719 629 107 203 156 398 156 616 -1 270 -77 523 -225 743 -255 379 -659 592
-1115 589 -96 -1 -175 -7 -235 -19z m395 -194 c233 -32 423 -120 605 -282 210
-187 339 -447 363 -733 29 -337 -84 -650 -320 -889 -439 -445 -1157 -445
-1596 0 -236 239 -349 552 -320 889 43 520 443 942 958 1014 126 17 184 17
310 1z"/>
<path d="M2420 3574 c-372 -67 -653 -322 -752 -681 -29 -104 -32 -333 -6 -438
84 -342 331 -593 676 -687 110 -30 334 -30 444 0 345 94 592 345 676 687 26
105 23 334 -6 438 -79 287 -287 522 -557 627 -101 40 -164 51 -305 55 -80 2
-156 2 -170 -1z m274 -209 c153 -32 270 -96 381 -209 280 -286 262 -760 -40
-1027 -137 -121 -290 -179 -475 -179 -487 0 -823 459 -680 931 58 193 219 367
412 444 135 54 270 67 402 40z"/>
<path d="M772 3681 c-184 -47 -210 -294 -40 -382 49 -25 223 -27 272 -4 148
71 160 279 20 361 -37 22 -60 27 -132 30 -48 2 -102 -1 -120 -5z"/>
</g>
</svg>
