<?xml version="1.0" standalone="no"?>
<!DOCTYPE svg PUBLIC "-//W3C//DTD SVG 20010904//EN"
 "http://www.w3.org/TR/2001/REC-SVG-20010904/DTD/svg10.dtd">
<svg version="1.0" xmlns="http://www.w3.org/2000/svg"
 width="750.000000pt" height="562.000000pt" viewBox="0 0 750.000000 562.000000"
 preserveAspectRatio="xMidYMid meet">

<g transform="translate(0.000000,562.000000) scale(0.100000,-0.100000)"
fill="#000000" stroke="none">
<path d="M4837 5151 c-54 -32 -102 -62 -107 -67 -5 -5 48 -32 123 -63 170 -69
197 -82 209 -105 9 -16 7 -18 -7 -13 -9 4 -25 2 -36 -4 -20 -10 -68 7 -375
139 -78 34 -93 37 -109 26 -17 -13 -17 -14 0 -20 17 -7 17 -8 0 -20 -17 -13
-17 -14 0 -20 17 -7 17 -8 1 -20 -16 -11 -16 -13 -1 -22 16 -8 16 -10 0 -16
-17 -6 -17 -7 0 -20 17 -12 17 -13 0 -20 -17 -6 -17 -7 1 -21 19 -14 19 -14 0
-15 -18 0 -18 -1 -1 -20 17 -19 17 -20 -1 -20 -18 -1 -18 -1 -1 -14 18 -14 18
-15 0 -24 -17 -10 -17 -11 0 -18 16 -6 16 -7 1 -19 -16 -11 -15 -12 2 -19 15
-6 16 -9 4 -16 -11 -7 -11 -11 -1 -23 9 -12 9 -16 -1 -20 -10 -4 -10 -8 2 -16
12 -8 12 -11 -4 -17 -18 -7 -18 -8 -2 -20 16 -11 16 -13 -1 -22 -17 -10 -17
-11 0 -18 16 -6 16 -7 1 -19 -16 -11 -16 -12 1 -19 17 -6 17 -7 -1 -21 -10 -8
-14 -15 -7 -15 7 0 10 -7 6 -16 -3 -10 0 -20 9 -25 8 -5 15 -19 14 -31 -1 -25
3 -22 -581 -375 -192 -116 -415 -251 -495 -300 l-145 -88 3 -75 c3 -62 7 -78
24 -91 21 -16 22 -15 56 35 42 63 60 82 67 74 6 -5 -56 -103 -74 -118 -3 -3
-10 -13 -16 -22 -36 -59 -126 -179 -120 -158 8 25 8 25 -14 6 -35 -32 -27 -62
17 -57 9 2 11 -6 6 -23 -8 -32 4 -34 15 -3 5 13 5 27 -1 34 -7 9 10 40 58 108
75 106 65 102 160 60 l51 -23 7 -61 c9 -75 30 -93 107 -93 65 1 99 22 99 63 0
17 6 32 15 35 8 4 15 12 15 18 0 23 45 54 315 217 247 149 275 164 334 172 75
10 104 4 76 -17 -17 -12 -17 -13 1 -20 16 -6 16 -9 4 -17 -13 -8 -13 -10 0
-19 13 -9 13 -11 0 -20 -13 -9 -13 -11 0 -19 12 -8 12 -11 -4 -17 -18 -7 -18
-8 -2 -20 16 -11 16 -13 1 -22 -16 -8 -16 -10 0 -16 17 -6 17 -7 0 -20 -17
-12 -17 -13 1 -20 16 -6 16 -9 4 -17 -13 -8 -13 -10 0 -19 13 -9 13 -11 0 -21
-11 -8 -12 -12 -2 -16 18 -7 15 -23 -5 -23 -17 -1 -17 -2 0 -14 17 -13 17 -15
2 -24 -16 -8 -16 -10 1 -16 15 -6 16 -9 4 -16 -11 -7 -11 -11 -1 -23 9 -12 9
-16 -1 -20 -10 -4 -10 -8 2 -16 13 -10 13 -12 0 -21 -13 -9 -13 -11 0 -19 12
-8 12 -11 -4 -17 -18 -7 -18 -8 -1 -20 17 -12 17 -14 1 -20 -15 -6 -15 -7 1
-20 11 -8 13 -13 6 -14 -28 0 -10 -19 37 -39 38 -16 50 -27 51 -44 0 -12 0
-112 0 -222 l-1 -200 -25 -13 c-22 -11 -30 -11 -55 2 l-30 14 0 -52 c0 -57 -5
-67 -26 -59 -15 6 -20 73 -5 73 5 0 11 9 14 20 6 23 -3 26 -22 8 -10 -9 -12
-10 -7 -1 4 7 -3 17 -16 24 -13 6 -34 22 -48 35 l-25 23 3 -279 c4 -273 0
-311 -26 -258 -10 22 -11 21 -11 -9 -1 -25 -8 -36 -36 -53 -29 -18 -35 -28
-35 -56 0 -19 -2 -34 -4 -34 -5 0 -146 59 -436 182 -135 57 -260 110 -279 118
l-33 13 41 34 c37 31 40 38 39 77 -2 36 -5 41 -15 30 -7 -7 -12 -19 -11 -26 2
-7 -7 -17 -19 -23 -13 -5 -23 -15 -23 -21 0 -7 -12 -17 -27 -23 -16 -6 -37
-16 -48 -23 -103 -64 -143 -87 -162 -93 -13 -3 -23 -11 -23 -16 0 -5 -7 -9
-16 -9 -10 0 -14 6 -10 15 3 9 -1 16 -9 16 -8 1 -18 2 -22 3 -5 1 -25 5 -46 9
-24 5 -35 12 -31 19 4 6 3 8 -4 4 -6 -3 -35 5 -64 18 -122 55 -121 55 -164 38
-21 -8 -51 -15 -66 -16 -16 0 -28 -2 -28 -3 0 -1 12 -9 28 -17 23 -12 31 -12
52 0 37 20 52 18 154 -26 51 -22 105 -40 119 -40 23 0 37 -16 37 -44 0 -17
-73 -43 -78 -27 -5 14 -42 15 -42 0 0 -5 5 -7 12 -3 8 5 9 2 5 -9 -3 -10 -3
-17 2 -17 7 0 57 15 91 27 27 10 55 11 94 3 46 -10 67 -4 64 18 -2 12 5 17 22
17 14 1 33 6 44 12 14 8 40 1 120 -33 55 -24 206 -87 334 -142 129 -54 234
-103 234 -108 1 -14 -104 -74 -130 -74 -22 0 -29 3 -90 34 -18 10 -40 15 -48
12 -8 -3 -13 -2 -10 3 8 12 -91 51 -111 44 -11 -4 -14 -3 -9 5 4 7 4 12 -1 13
-4 0 -19 2 -32 3 -14 2 -27 8 -29 14 -2 6 -10 8 -19 5 -10 -4 -14 -2 -10 4 8
13 -50 36 -66 26 -6 -4 -7 -1 -2 7 6 10 3 12 -13 8 -13 -4 -20 -2 -19 6 1 6
-6 10 -15 8 -10 -2 -18 2 -18 9 0 6 -7 9 -15 5 -8 -3 -15 -1 -15 5 0 6 -7 8
-16 5 -8 -3 -13 -2 -10 3 6 9 -73 45 -81 37 -3 -3 -13 2 -21 11 -12 11 -17 12
-20 3 -8 -22 -73 8 793 -357 438 -185 435 -183 435 -194 0 -4 -22 -21 -49 -37
l-49 -31 -329 140 c-180 77 -375 160 -433 184 -58 24 -206 87 -330 140 -124
53 -249 106 -277 117 -29 11 -53 27 -53 34 0 9 -11 14 -29 14 -28 0 -140 46
-831 340 -184 78 -360 153 -390 165 -30 12 -237 100 -460 195 -511 218 -920
390 -926 390 -2 0 -4 -41 -4 -92 0 -79 2 -89 13 -73 19 25 35 12 33 -25 -3
-36 15 -54 44 -45 15 5 19 12 15 26 -10 32 13 26 159 -41 66 -30 326 -140 331
-140 3 0 29 -11 59 -25 30 -14 58 -25 63 -25 5 0 8 -17 8 -37 0 -34 3 -38 28
-41 25 -3 28 0 25 20 -2 16 2 22 12 21 9 -2 141 -56 295 -121 154 -65 288
-122 298 -125 15 -6 16 -10 6 -28 -9 -17 -8 -20 2 -14 9 6 11 3 6 -8 -6 -17 7
-32 39 -39 17 -4 20 -1 16 23 -3 22 0 29 12 29 9 0 16 -4 16 -9 0 -5 14 -11
31 -15 17 -3 45 -12 62 -20 18 -8 66 -29 107 -46 41 -18 89 -38 105 -45 106
-46 243 -104 263 -110 26 -7 28 -18 7 -35 -8 -7 -15 -18 -15 -24 0 -6 5 -3 11
7 13 22 29 13 22 -13 -5 -17 0 -20 27 -20 27 0 32 3 27 20 -3 11 -1 23 4 26 5
3 9 0 9 -6 0 -6 4 -9 9 -6 5 4 38 -7 73 -23 34 -16 135 -59 223 -96 88 -37
174 -73 190 -80 17 -7 49 -21 71 -30 39 -17 41 -20 40 -56 -1 -28 -5 -38 -14
-34 -8 3 -16 5 -18 5 -3 0 -2 5 2 12 4 7 3 8 -5 4 -13 -8 -81 14 -81 26 0 4
-7 8 -15 8 -9 0 -95 34 -193 76 -97 42 -211 89 -252 106 -41 16 -88 36 -105
43 -134 59 -222 97 -292 126 -44 19 -79 38 -76 43 4 5 1 6 -6 2 -6 -4 -58 12
-114 37 -56 25 -158 69 -227 97 -69 29 -143 61 -165 71 -55 24 -166 71 -323
135 -73 30 -141 59 -150 64 -9 5 -64 29 -122 54 -58 24 -146 61 -197 82 -50
21 -89 42 -86 48 3 5 1 6 -5 2 -11 -7 -71 16 -267 102 -74 33 -72 31 -55 42
20 13 3 12 -21 0 -35 -19 -20 -38 58 -70 43 -18 407 -172 808 -342 721 -306
1035 -440 1607 -682 161 -68 534 -226 828 -351 294 -125 724 -307 955 -405
456 -193 1922 -815 1969 -835 29 -12 39 -7 310 158 155 93 293 177 308 186 16
9 28 24 28 34 0 10 -4 15 -10 12 -5 -3 -10 -2 -10 3 0 5 -9 12 -20 15 -17 4
-20 14 -20 56 l0 52 -44 -26 -44 -26 -68 27 c-38 15 -74 33 -80 41 -7 7 -16
13 -20 11 -14 -3 -64 16 -284 111 l-205 88 -6 59 c-7 75 -57 172 -115 223 -28
25 -95 59 -205 106 -395 166 -604 256 -611 263 -4 4 -13 162 -20 350 -12 304
-11 345 2 356 8 7 45 30 83 51 60 35 82 55 60 55 -5 0 -7 111 -5 246 3 207 1
249 -12 263 -8 9 -16 36 -18 61 -3 44 -5 46 -58 72 -33 17 -64 26 -77 23 -19
-4 -23 -1 -23 17 l0 22 -16 -22 c-8 -12 -20 -22 -26 -22 -6 0 -26 -13 -45 -30
-18 -16 -43 -30 -54 -30 -28 0 -121 40 -138 59 -11 14 -12 13 -6 -6 5 -17 2
-23 -9 -23 -14 0 -16 18 -16 124 l0 125 33 25 c19 15 41 26 50 26 15 0 17 14
17 103 l0 102 21 -32 c12 -18 27 -33 35 -33 8 0 27 -6 42 -14 47 -24 72 -29
72 -14 0 7 7 23 15 36 14 19 16 83 15 484 0 450 -1 464 -21 503 -18 33 -23 67
-29 195 -5 85 -9 156 -9 156 -1 1 -18 9 -38 17 -21 9 -108 45 -193 81 -85 36
-157 66 -160 66 -3 0 -49 -27 -103 -59z m243 -286 c0 -9 -6 -12 -15 -9 -8 4
-12 10 -9 15 8 14 24 10 24 -6z m-85 -585 c44 -20 75 -28 91 -24 l24 6 0 -114
c0 -71 4 -118 11 -125 7 -7 10 -37 7 -79 -3 -55 -8 -70 -26 -83 -12 -9 -39
-28 -59 -43 -42 -33 -72 -35 -133 -7 -25 11 -54 18 -67 14 l-23 -5 0 127 0
128 40 25 c24 15 40 33 41 45 1 11 3 43 4 70 2 28 3 60 4 73 1 28 6 28 86 -8z
m-1467 -648 c2 -7 -2 -10 -12 -6 -9 3 -16 11 -16 16 0 13 23 5 28 -10z m-7
-56 c-13 -16 -6 -40 9 -31 5 3 11 1 14 -4 3 -5 -2 -12 -11 -15 -28 -11 -45 38
-21 62 16 16 24 6 9 -12z m-31 -31 c0 -8 -4 -15 -10 -15 -5 0 -7 7 -4 15 4 8
8 15 10 15 2 0 4 -7 4 -15z m2035 -313 c-7 -7 -85 29 -85 39 0 5 20 -1 45 -13
24 -12 42 -24 40 -26z m-4895 -71 c80 -34 159 -68 175 -75 17 -8 149 -64 295
-126 146 -62 353 -149 460 -195 107 -46 299 -126 425 -179 127 -53 244 -103
260 -110 17 -8 46 -21 65 -29 19 -8 62 -26 95 -40 68 -29 182 -77 465 -197
107 -45 373 -158 590 -250 217 -92 451 -192 520 -220 69 -29 132 -56 140 -61
8 -4 71 -31 140 -59 170 -71 200 -88 200 -117 0 -13 -6 -23 -12 -23 -24 0
-148 52 -148 61 0 6 -4 8 -9 4 -5 -3 -38 8 -73 24 -35 17 -85 39 -113 50 -54
20 -200 83 -252 106 -17 8 -33 15 -36 15 -2 0 -31 12 -63 27 -33 14 -65 28
-73 29 -8 1 -17 6 -20 11 -3 4 -13 9 -21 11 -8 2 -28 9 -45 17 -16 7 -55 23
-85 35 -30 12 -59 25 -65 30 -5 4 -21 11 -35 15 -14 4 -48 18 -77 31 -28 13
-55 24 -59 24 -3 0 -38 15 -78 33 -39 19 -83 37 -98 40 -15 4 -34 14 -42 23
-9 8 -16 13 -16 10 0 -5 -56 17 -190 74 -41 18 -100 43 -130 55 -87 36 -235
99 -365 155 -66 28 -133 55 -148 60 -16 5 -34 13 -40 18 -7 4 -43 21 -82 37
-38 16 -73 33 -76 38 -3 5 -10 8 -15 7 -5 0 -25 6 -44 14 -19 8 -60 24 -90 36
-30 12 -89 37 -130 55 -82 35 -289 123 -554 235 -93 39 -194 82 -223 95 -29
14 -58 25 -63 25 -6 0 -10 5 -10 11 0 5 -4 7 -10 4 -5 -3 -26 3 -47 13 -21 11
-69 32 -108 47 -38 16 -73 33 -77 39 -4 6 -8 8 -8 4 0 -9 -143 51 -151 64 -3
5 -9 9 -13 8 -15 -4 -66 12 -66 21 0 5 5 9 10 9 6 0 10 7 10 16 0 26 49 13
210 -55z m4073 -135 c-15 -13 -30 -22 -33 -19 -5 5 41 42 53 43 4 0 -5 -11
-20 -24z m33 -19 c-17 -12 -17 -15 -2 -30 15 -15 15 -17 -3 -27 -13 -7 -22 -7
-26 0 -3 5 1 10 11 10 15 0 15 2 0 24 -14 23 -14 25 2 29 32 9 36 7 18 -6z
m334 -12 c-7 -8 -22 -15 -34 -15 -20 1 -20 2 4 15 33 19 46 19 30 0z m-305
-55 c-10 -11 -22 -20 -28 -20 -5 0 1 9 14 20 31 25 37 25 14 0z m479 14 c14
-5 24 -34 12 -34 -16 0 -56 21 -56 30 0 11 20 13 44 4z m-409 -22 c-3 -3 -11
0 -18 7 -9 10 -8 11 6 5 10 -3 15 -9 12 -12z m45 -2 c0 -5 -4 -10 -10 -10 -5
0 -10 5 -10 10 0 6 5 10 10 10 6 0 10 -4 10 -10z m-244 -305 c-3 -30 -8 -60
-11 -66 -4 -5 -2 -16 4 -23 18 -21 11 -84 -11 -89 -10 -3 -18 -13 -18 -22 0
-14 4 -14 29 4 39 28 53 27 18 -2 -28 -22 -30 -57 -3 -57 20 0 137 80 131 89
-3 5 0 13 6 16 5 4 8 14 5 22 -6 16 7 13 71 -13 32 -14 33 -16 32 -67 -1 -28
-3 -44 -6 -34 -5 17 -23 24 -23 8 0 -14 -33 -23 -40 -11 -7 11 -191 -93 -198
-112 -2 -4 -10 -8 -18 -8 -12 0 -15 12 -13 55 1 30 -1 58 -4 62 -4 3 -7 -22
-7 -56 0 -39 -4 -60 -10 -56 -5 3 -10 31 -10 60 0 49 -3 56 -26 68 -26 14 -26
14 -5 20 14 3 24 0 27 -8 3 -8 12 -11 20 -8 11 4 14 31 14 129 0 116 1 124 22
138 12 9 24 16 26 16 2 0 1 -25 -2 -55z m34 25 c0 -5 -4 -10 -10 -10 -5 0 -10
5 -10 10 0 6 5 10 10 10 6 0 10 -4 10 -10z m0 -30 c0 -5 -4 -10 -10 -10 -5 0
-10 5 -10 10 0 6 5 10 10 10 6 0 10 -4 10 -10z m0 -60 c0 -16 -4 -30 -10 -30
-5 0 -10 14 -10 30 0 17 5 30 10 30 6 0 10 -13 10 -30z m-153 -26 c-9 -9 -28
6 -21 18 4 6 10 6 17 -1 6 -6 8 -13 4 -17z m-157 -414 c0 -5 -4 -10 -10 -10
-5 0 -10 5 -10 10 0 6 5 10 10 10 6 0 10 -4 10 -10z m260 -110 c0 -5 -5 -10
-11 -10 -5 0 -7 5 -4 10 3 6 8 10 11 10 2 0 4 -4 4 -10z m-1331 -82 c36 -16
85 -38 110 -47 26 -10 64 -26 86 -35 22 -10 101 -44 175 -75 134 -57 135 -58
135 -90 0 -35 22 -55 50 -45 9 4 15 14 13 24 -5 29 -10 30 147 -35 50 -20 104
-43 120 -51 17 -8 102 -45 190 -81 88 -36 162 -68 165 -70 2 -2 -2 -8 -10 -13
-10 -7 -11 -10 -3 -10 7 0 12 -10 10 -22 -2 -24 21 -35 50 -24 12 5 13 9 4 20
-27 33 16 21 180 -48 225 -95 209 -89 244 -92 16 -1 31 -7 33 -13 2 -6 10 -11
18 -11 8 0 14 -4 14 -8 0 -5 31 -21 69 -36 67 -28 68 -28 64 -62 -2 -24 1 -36
12 -40 20 -8 45 13 38 32 -6 17 -1 17 48 2 34 -10 37 -13 26 -27 -10 -14 -10
-14 4 -3 14 10 27 7 80 -17 99 -45 326 -141 332 -141 4 0 35 -13 71 -29 60
-28 63 -31 60 -61 -4 -32 -2 -34 51 -44 17 -4 25 -3 20 1 -11 8 -18 53 -9 53
3 0 21 -8 42 -19 20 -10 116 -51 212 -91 96 -39 195 -82 220 -95 25 -12 62
-28 83 -34 20 -7 37 -17 37 -22 0 -6 5 -7 10 -4 6 3 10 2 10 -4 0 -5 -4 -13
-10 -16 -5 -3 -10 -12 -10 -18 0 -8 4 -7 9 2 7 11 10 9 13 -10 2 -19 9 -24 31
-24 16 -1 32 -7 37 -15 5 -8 12 -12 15 -8 4 3 -3 16 -14 27 -23 23 -28 46 -8
38 6 -2 29 -10 50 -18 44 -15 47 -30 11 -54 -26 -17 -29 -16 -88 8 -232 96
-220 90 -200 104 10 7 13 13 8 13 -6 0 -15 -5 -21 -11 -8 -8 -27 -4 -69 14
-33 13 -112 46 -176 72 -64 27 -115 52 -112 56 2 4 -4 7 -13 6 -16 -1 -120 42
-471 193 -34 14 -60 28 -58 31 2 2 -5 5 -17 5 -12 1 -51 15 -87 31 -36 16
-117 52 -181 78 -89 38 -115 53 -111 65 4 12 2 13 -9 3 -23 -22 -37 -15 -33
16 3 27 0 30 -36 36 -28 5 -40 12 -40 23 0 15 -2 15 -10 2 -6 -9 -5 -17 3 -22
6 -4 8 -10 5 -14 -8 -7 -36 3 -126 43 -29 12 -55 23 -58 23 -3 0 -76 31 -162
69 -86 37 -236 101 -332 141 -96 40 -197 83 -225 95 -27 12 -112 48 -187 80
-76 32 -135 62 -132 66 3 5 -1 6 -9 3 -8 -3 -49 10 -93 29 -43 19 -114 49
-156 67 -43 18 -75 36 -72 41 3 5 -1 6 -9 3 -8 -3 -57 14 -110 38 -79 35 -93
44 -76 50 11 5 25 5 31 2 6 -4 6 2 -1 14 -22 41 -11 40 98 -10z m2551 -472
c172 -73 258 -115 288 -141 52 -45 54 -59 5 -35 -21 10 -110 48 -198 85 -211
88 -389 166 -395 171 -6 7 22 24 40 24 8 0 125 -47 260 -104z m-130 -293 c239
-101 469 -199 510 -217 205 -91 511 -218 516 -214 5 6 -32 23 -314 142 -111
47 -207 86 -212 86 -22 0 -7 16 34 38 l44 24 291 -123 c160 -68 291 -126 291
-129 0 -8 -206 -120 -221 -120 -6 0 -144 57 -307 126 -164 70 -497 211 -742
315 -386 163 -483 209 -442 209 5 0 23 14 41 31 24 22 37 28 54 23 12 -4 217
-90 457 -191z m-673 61 c-3 -3 -12 -4 -19 -1 -8 3 -5 6 6 6 11 1 17 -2 13 -5z
m301 -60 c199 -84 498 -211 537 -229 17 -7 134 -57 260 -110 265 -111 398
-168 472 -200 47 -21 51 -26 49 -52 -3 -20 -8 -27 -20 -25 -17 3 -498 205
-526 221 -8 4 -58 25 -110 46 -52 21 -97 41 -100 44 -3 3 -12 7 -20 9 -8 2
-114 45 -235 97 -121 51 -289 122 -373 158 l-154 64 27 22 c15 11 29 21 31 21
3 0 75 -30 162 -66z m-398 -9 c0 -8 8 -19 18 -24 24 -14 6 -14 -21 0 -29 16
-28 14 -21 33 7 18 24 12 24 -9z m30 1 c0 -3 -4 -8 -10 -11 -5 -3 -10 -1 -10
4 0 6 5 11 10 11 6 0 10 -2 10 -4z m2210 -345 c0 -6 -4 -13 -10 -16 -5 -3 -10
1 -10 9 0 9 5 16 10 16 6 0 10 -4 10 -9z m-200 -61 c0 -6 -8 -14 -17 -17 -10
-4 -40 -21 -68 -38 -73 -47 -95 -57 -95 -46 0 10 157 111 172 111 4 0 8 -5 8
-10z"/>
<path d="M5063 4140 c0 -25 2 -35 4 -22 2 12 2 32 0 45 -2 12 -4 2 -4 -23z"/>
<path d="M4901 4094 c0 -11 3 -14 6 -6 3 7 2 16 -1 19 -3 4 -6 -2 -5 -13z"/>
<path d="M4605 2640 c3 -5 8 -10 11 -10 2 0 4 5 4 10 0 6 -5 10 -11 10 -5 0
-7 -4 -4 -10z"/>
<path d="M4600 2525 c0 -19 4 -35 8 -35 4 0 6 16 4 35 -2 19 -6 35 -8 35 -2 0
-4 -16 -4 -35z"/>
<path d="M4860 2450 c0 -5 5 -10 10 -10 6 0 10 5 10 10 0 6 -4 10 -10 10 -5 0
-10 -4 -10 -10z"/>
<path d="M3380 1829 c0 -5 5 -7 10 -4 6 3 10 8 10 11 0 2 -4 4 -10 4 -5 0 -10
-5 -10 -11z"/>
<path d="M3478 1793 c7 -3 16 -2 19 1 4 3 -2 6 -13 5 -11 0 -14 -3 -6 -6z"/>
<path d="M3500 1780 c-9 -6 -10 -10 -3 -10 6 0 15 5 18 10 8 12 4 12 -15 0z"/>
<path d="M4028 1583 c7 -3 16 -2 19 1 4 3 -2 6 -13 5 -11 0 -14 -3 -6 -6z"/>
<path d="M4255 1460 c-3 -5 -2 -10 4 -10 5 0 13 5 16 10 3 6 2 10 -4 10 -5 0
-13 -4 -16 -10z"/>
<path d="M4590 1346 c0 -2 7 -6 15 -10 8 -3 15 -1 15 4 0 6 -7 10 -15 10 -8 0
-15 -2 -15 -4z"/>
<path d="M4548 1333 c6 -2 18 -2 25 0 6 3 1 5 -13 5 -14 0 -19 -2 -12 -5z"/>
<path d="M4668 1283 c7 -3 16 -2 19 1 4 3 -2 6 -13 5 -11 0 -14 -3 -6 -6z"/>
<path d="M4810 1230 c0 -5 5 -10 11 -10 5 0 7 5 4 10 -3 6 -8 10 -11 10 -2 0
-4 -4 -4 -10z"/>
<path d="M4950 1220 c0 -5 5 -10 11 -10 5 0 7 5 4 10 -3 6 -8 10 -11 10 -2 0
-4 -4 -4 -10z"/>
<path d="M5020 1170 c0 -5 5 -10 11 -10 5 0 7 5 4 10 -3 6 -8 10 -11 10 -2 0
-4 -4 -4 -10z"/>
<path d="M5058 1153 c7 -3 16 -2 19 1 4 3 -2 6 -13 5 -11 0 -14 -3 -6 -6z"/>
<path d="M5118 1113 c7 -3 16 -2 19 1 4 3 -2 6 -13 5 -11 0 -14 -3 -6 -6z"/>
<path d="M5234 1062 c4 -7 1 -12 -6 -12 -8 0 -6 -5 5 -11 10 -6 21 -8 24 -5 4
3 1 6 -6 6 -7 0 -10 4 -6 9 3 5 0 13 -6 17 -8 4 -9 3 -5 -4z"/>
<path d="M5390 999 c0 -5 5 -7 10 -4 6 3 10 8 10 11 0 2 -4 4 -10 4 -5 0 -10
-5 -10 -11z"/>
<path d="M5465 980 c-3 -5 -1 -10 4 -10 6 0 11 5 11 10 0 6 -2 10 -4 10 -3 0
-8 -4 -11 -10z"/>
<path d="M5420 976 c0 -2 7 -7 16 -10 8 -3 12 -2 9 4 -6 10 -25 14 -25 6z"/>
<path d="M5530 950 c8 -5 20 -10 25 -10 6 0 3 5 -5 10 -8 5 -19 10 -25 10 -5
0 -3 -5 5 -10z"/>
<path d="M5505 930 c27 -12 43 -12 25 0 -8 5 -22 9 -30 9 -10 0 -8 -3 5 -9z"/>
<path d="M5558 913 c7 -3 16 -2 19 1 4 3 -2 6 -13 5 -11 0 -14 -3 -6 -6z"/>
<path d="M5648 873 c6 -2 18 -2 25 0 6 3 1 5 -13 5 -14 0 -19 -2 -12 -5z"/>
<path d="M5995 749 c-11 -16 -1 -19 13 -3 7 8 8 14 3 14 -5 0 -13 -5 -16 -11z"/>
<path d="M6230 620 c8 -5 20 -10 25 -10 6 0 3 5 -5 10 -8 5 -19 10 -25 10 -5
0 -3 -5 5 -10z"/>
<path d="M6448 533 c7 -3 16 -2 19 1 4 3 -2 6 -13 5 -11 0 -14 -3 -6 -6z"/>
<path d="M6600 500 c0 -5 5 -10 11 -10 5 0 7 5 4 10 -3 6 -8 10 -11 10 -2 0
-4 -4 -4 -10z"/>
<path d="M755 3479 c-30 -59 -43 -74 -97 -108 l-63 -40 38 -16 c35 -15 39 -14
59 5 12 11 27 20 34 20 6 0 23 9 38 21 24 19 46 19 46 -1 0 -8 -86 -54 -102
-55 -22 0 -13 -14 20 -29 42 -19 33 -22 137 39 l30 18 133 -57 c73 -31 134
-56 137 -56 2 0 33 -13 67 -28 35 -16 95 -42 133 -58 39 -16 85 -36 102 -44
l33 -16 -30 -11 c-29 -11 -35 -7 -32 18 1 4 -8 4 -20 1 -13 -3 -19 -1 -15 5 4
6 1 10 -6 9 -24 -2 -207 77 -200 87 3 6 1 7 -6 3 -13 -8 -233 83 -226 94 6 10
-73 -5 -112 -21 -18 -7 -33 -16 -33 -20 0 -16 34 -18 63 -3 26 14 36 15 66 4
65 -23 456 -191 465 -200 4 -4 -4 -15 -19 -22 l-26 -14 41 -19 c26 -12 44 -15
48 -9 4 6 31 25 60 42 l54 33 34 -21 c20 -11 40 -20 45 -20 6 0 34 -10 62 -23
29 -13 88 -39 132 -57 44 -18 103 -43 130 -55 28 -12 65 -27 82 -34 18 -8 30
-18 26 -24 -3 -6 -1 -7 5 -3 6 4 27 0 47 -8 40 -17 46 -27 13 -19 -17 3 -19 2
-10 -5 11 -7 10 -10 -3 -16 -22 -8 -27 -8 -21 3 3 4 -27 23 -67 41 -39 17 -87
39 -106 47 -43 19 -152 65 -261 110 l-84 34 -48 -22 c-37 -17 -45 -25 -37 -35
9 -11 15 -11 32 1 12 8 33 15 47 15 14 0 134 -46 268 -102 l242 -103 -26 -19
-26 -19 23 -13 c36 -20 48 -17 112 22 58 36 59 36 95 20 21 -8 134 -56 252
-106 118 -50 229 -97 245 -104 17 -8 41 -17 54 -21 18 -6 20 -9 10 -16 -20
-12 -31 -11 -23 3 4 7 3 8 -5 4 -6 -4 -9 -11 -6 -16 3 -5 1 -11 -5 -15 -5 -3
-10 0 -10 8 0 9 -26 25 -62 40 -35 14 -62 31 -60 37 1 6 -2 9 -8 5 -14 -9 -52
4 -45 16 3 5 0 6 -7 4 -13 -5 -270 97 -294 116 -21 17 -59 13 -102 -11 -33
-19 -39 -26 -27 -32 9 -6 26 -3 45 7 38 20 27 23 280 -84 113 -48 220 -93 239
-101 l33 -13 -33 -18 -34 -18 40 -16 c30 -13 43 -15 58 -6 10 7 22 9 28 6 5
-4 8 -2 7 4 -2 6 13 21 34 33 l36 21 114 -48 c207 -87 245 -98 276 -82 15 7
26 19 24 26 -2 8 6 20 18 28 11 8 18 19 15 24 -4 5 -1 9 4 9 47 0 -92 66 -411
196 -37 15 -64 32 -61 37 3 6 1 7 -5 3 -6 -4 -42 6 -79 23 -38 16 -171 73
-298 126 -219 92 -369 156 -1145 485 -184 78 -390 166 -458 195 l-123 53 -34
-69z m1835 -754 c0 -8 -4 -15 -10 -15 -5 0 -10 7 -10 15 0 8 5 15 10 15 6 0
10 -7 10 -15z"/>
<path d="M3359 3463 c-13 -16 -12 -17 4 -4 16 13 21 21 13 21 -2 0 -10 -8 -17
-17z"/>
<path d="M5112 3435 c0 -16 2 -22 5 -12 2 9 2 23 0 30 -3 6 -5 -1 -5 -18z"/>
<path d="M3329 3423 c-13 -16 -12 -17 4 -4 16 13 21 21 13 21 -2 0 -10 -8 -17
-17z"/>
<path d="M836 3275 c-11 -8 -15 -15 -9 -15 6 0 16 7 23 15 16 19 11 19 -14 0z"/>
<path d="M3771 3269 c-28 -23 -21 -37 11 -21 13 6 17 11 9 11 -11 1 -11 4 -1
16 17 20 10 18 -19 -6z"/>
<path d="M3642 3238 c3 -7 13 -12 24 -12 76 4 79 4 64 14 -23 15 -93 13 -88
-2z"/>
<path d="M3494 3218 c-3 -4 4 -8 15 -8 12 0 21 4 21 8 0 5 -7 9 -15 9 -9 0
-18 -4 -21 -9z"/>
<path d="M3640 3195 c-7 -8 -9 -15 -4 -15 5 0 2 -4 -6 -10 -8 -5 -11 -12 -7
-16 4 -4 13 -2 19 4 7 7 22 12 35 12 13 0 23 5 23 10 0 6 -7 10 -15 10 -8 0
-15 5 -15 10 0 15 -16 12 -30 -5z"/>
<path d="M3457 3173 c-12 -11 8 -45 34 -58 38 -20 58 -19 53 3 -5 17 -79 64
-87 55z"/>
<path d="M3255 3152 c-6 -15 19 -27 40 -18 8 3 15 11 15 18 0 17 -48 17 -55 0z"/>
<path d="M3667 3123 c-26 -26 -29 -27 -38 -10 -14 23 -39 22 -39 -3 0 -11 -5
-20 -10 -20 -6 0 -2 -10 10 -22 11 -12 20 -27 20 -34 0 -6 9 -31 20 -55 16
-35 20 -66 20 -153 0 -102 -2 -110 -24 -131 -39 -36 -49 -62 -29 -75 17 -11
17 -11 0 -6 -10 3 -23 6 -29 6 -5 0 -1 15 10 34 22 37 19 54 -5 31 -10 -11
-19 -12 -33 -5 -10 5 -30 14 -44 20 -24 9 -26 7 -26 -18 0 -23 8 -30 55 -51
30 -13 55 -27 55 -31 0 -4 -8 -18 -18 -30 l-18 -22 -41 21 -42 21 2 -33 c0
-17 -2 -39 -6 -47 -6 -13 -1 -16 28 -16 l36 0 -23 18 c-17 13 -19 18 -8 18 9
0 21 -5 26 -10 14 -14 44 -2 44 18 0 8 3 12 7 9 3 -4 12 2 20 13 8 11 21 20
29 20 8 0 13 4 10 9 -4 5 11 7 33 4 34 -5 41 -2 57 23 14 21 15 29 6 32 -10 3
-13 37 -12 135 0 73 -2 142 -5 153 -5 16 -1 23 14 27 19 5 20 10 15 54 -19
143 -23 149 -67 106z m53 -101 c0 -4 -9 -13 -20 -20 -22 -13 -27 -3 -8 16 14
14 28 16 28 4z m4 -31 c3 -5 -3 -11 -15 -14 -16 -4 -18 -3 -8 9 13 16 16 17
23 5z"/>
<path d="M390 3110 c-9 -6 -10 -10 -3 -10 6 0 15 5 18 10 8 12 4 12 -15 0z"/>
<path d="M4598 3063 c-4 -46 -2 -57 10 -61 8 -2 12 9 12 37 0 39 -18 59 -22
24z"/>
<path d="M3564 3055 c22 -17 40 -20 32 -6 -3 5 -16 11 -28 14 -22 6 -22 5 -4
-8z"/>
<path d="M535 3040 c-4 -6 1 -7 11 -3 13 5 15 3 9 -7 -5 -9 -4 -11 4 -6 6 4 9
12 6 17 -8 12 -22 12 -30 -1z"/>
<path d="M598 3013 c7 -3 16 -2 19 1 4 3 -2 6 -13 5 -11 0 -14 -3 -6 -6z"/>
<path d="M670 3010 c0 -5 5 -10 10 -10 6 0 10 5 10 10 0 6 -4 10 -10 10 -5 0
-10 -4 -10 -10z"/>
<path d="M630 3000 c0 -6 7 -10 15 -10 8 0 15 2 15 4 0 2 -7 6 -15 10 -8 3
-15 1 -15 -4z"/>
<path d="M718 2993 c7 -3 16 -2 19 1 4 3 -2 6 -13 5 -11 0 -14 -3 -6 -6z"/>
<path d="M1500 2990 c-9 -6 -10 -10 -3 -10 6 0 15 5 18 10 8 12 4 12 -15 0z"/>
<path d="M3286 2992 c-2 -4 -1 -14 5 -22 7 -12 9 -10 9 8 0 23 -5 28 -14 14z"/>
<path d="M714 2972 c3 -5 0 -13 -6 -15 -9 -4 -10 -6 -1 -6 17 -1 25 16 12 25
-7 4 -9 3 -5 -4z"/>
<path d="M818 2943 c7 -3 16 -2 19 1 4 3 -2 6 -13 5 -11 0 -14 -3 -6 -6z"/>
<path d="M3291 2934 c0 -11 3 -14 6 -6 3 7 2 16 -1 19 -3 4 -6 -2 -5 -13z"/>
<path d="M940 2866 c0 -2 7 -7 16 -10 8 -3 12 -2 9 4 -6 10 -25 14 -25 6z"/>
<path d="M1286 2759 c3 -5 0 -9 -5 -9 -21 0 -11 -16 11 -17 17 -2 19 0 9 6
-11 7 -10 10 5 13 17 3 17 4 -4 10 -12 3 -20 2 -16 -3z"/>
<path d="M4490 2709 c0 -5 5 -7 10 -4 6 3 10 8 10 11 0 2 -4 4 -10 4 -5 0 -10
-5 -10 -11z"/>
<path d="M2180 2699 c0 -5 5 -7 10 -4 6 3 10 8 10 11 0 2 -4 4 -10 4 -5 0 -10
-5 -10 -11z"/>
<path d="M2148 2683 c7 -3 16 -2 19 1 4 3 -2 6 -13 5 -11 0 -14 -3 -6 -6z"/>
<path d="M1516 2649 c3 -5 -5 -13 -18 -18 -13 -6 -18 -10 -12 -10 7 -1 24 5
38 13 25 13 25 14 6 19 -11 3 -17 1 -14 -4z"/>
<path d="M2540 2616 c0 -2 7 -7 16 -10 8 -3 12 -2 9 4 -6 10 -25 14 -25 6z"/>
<path d="M1648 2563 c7 -3 16 -2 19 1 4 3 -2 6 -13 5 -11 0 -14 -3 -6 -6z"/>
<path d="M2000 2439 c0 -5 5 -7 10 -4 6 3 10 8 10 11 0 2 -4 4 -10 4 -5 0 -10
-5 -10 -11z"/>
<path d="M2030 2430 c-9 -6 -10 -10 -3 -10 6 0 15 5 18 10 8 12 4 12 -15 0z"/>
<path d="M2875 2431 c-3 -5 0 -13 6 -17 7 -4 9 -3 5 4 -3 6 2 13 11 15 16 4
16 5 1 6 -9 0 -19 -3 -23 -8z"/>
<path d="M2073 2415 c0 -8 4 -12 9 -9 5 3 6 10 3 15 -9 13 -12 11 -12 -6z"/>
<path d="M2188 2363 c7 -3 16 -2 19 1 4 3 -2 6 -13 5 -11 0 -14 -3 -6 -6z"/>
<path d="M2667 2169 c7 -7 15 -10 18 -7 3 3 -2 9 -12 12 -14 6 -15 5 -6 -5z"/>
<path d="M2720 2140 c20 -13 33 -13 25 0 -3 6 -14 10 -23 10 -15 0 -15 -2 -2
-10z"/>
<path d="M2720 2110 c8 -5 20 -10 25 -10 6 0 3 5 -5 10 -8 5 -19 10 -25 10 -5
0 -3 -5 5 -10z"/>
<path d="M2820 2071 c0 -5 9 -11 21 -14 16 -4 18 -3 8 9 -13 16 -29 19 -29 5z"/>
<path d="M3058 1993 c7 -3 16 -2 19 1 4 3 -2 6 -13 5 -11 0 -14 -3 -6 -6z"/>
</g>
</svg>
