<?xml version="1.0" standalone="no"?>
<!DOCTYPE svg PUBLIC "-//W3C//DTD SVG 20010904//EN"
 "http://www.w3.org/TR/2001/REC-SVG-20010904/DTD/svg10.dtd">
<svg version="1.0" xmlns="http://www.w3.org/2000/svg"
 width="512.000000pt" height="512.000000pt" viewBox="0 0 512.000000 512.000000"
 preserveAspectRatio="xMidYMid meet">

<g transform="translate(0.000000,512.000000) scale(0.100000,-0.100000)"
fill="#000000" stroke="none">
<path d="M4275 4425 c-151 -33 -285 -128 -361 -255 -16 -27 -36 -50 -45 -50
-54 0 -156 -75 -179 -130 -15 -36 -14 -35 -48 -10 -23 17 -75 23 -377 50 -368
32 -387 31 -444 -9 -38 -27 -71 -96 -71 -147 0 -78 64 -162 139 -181 14 -4
184 7 377 24 315 27 355 32 382 51 l30 22 12 -29 c16 -41 73 -95 118 -113 20
-9 47 -20 59 -24 11 -5 41 -38 65 -74 74 -109 192 -190 324 -225 75 -19 204
-19 278 0 71 19 178 74 225 116 l34 31 -61 61 -61 61 -28 -26 c-83 -79 -252
-110 -374 -69 -73 25 -145 73 -185 126 l-27 36 31 32 c95 98 96 261 3 354 -39
39 -35 49 44 121 77 70 145 96 260 96 78 1 98 -3 150 -27 32 -15 74 -39 91
-52 18 -14 36 -25 41 -25 5 0 33 25 63 56 l55 56 -40 35 c-56 50 -187 110
-265 123 -84 13 -140 12 -215 -5z m-285 -408 c50 -26 90 -90 90 -141 0 -42
-38 -115 -72 -140 -18 -12 -49 -21 -85 -24 -49 -3 -64 0 -93 20 -53 36 -80 83
-80 140 0 131 125 206 240 145z m-1005 -92 c30 -30 32 -64 4 -99 -26 -33 -79
-36 -109 -6 -30 30 -27 83 6 109 35 28 69 26 99 -4z"/>
<path d="M2768 4156 c-47 -17 -22 3 -495 -395 -224 -189 -420 -360 -434 -380
-92 -124 -72 -323 43 -426 129 -117 322 -120 444 -9 36 33 558 654 552 658 -1
1 -29 15 -60 30 -206 98 -202 385 7 482 28 13 68 24 90 25 l40 1 -30 13 c-38
18 -109 18 -157 1z m-569 -824 c46 -34 71 -81 71 -134 0 -151 -166 -232 -277
-135 -42 37 -63 82 -63 134 0 44 34 108 72 136 52 39 144 39 197 -1z"/>
<path d="M1877 3630 c-85 -27 -152 -76 -212 -154 -61 -81 -61 -80 -142 -996
-41 -470 -75 -889 -75 -930 -2 -240 172 -461 412 -525 72 -19 211 -19 285 0
206 54 369 236 404 453 8 45 -3 199 -51 752 -33 382 -61 696 -62 698 -2 1 -22
-16 -46 -38 -25 -23 -74 -55 -109 -73 -61 -30 -72 -32 -171 -32 -102 0 -109 1
-182 38 -208 102 -291 345 -188 554 30 61 40 71 229 240 l36 32 -35 0 c-19 0
-61 -8 -93 -19z m266 -1784 c67 -32 121 -90 154 -163 22 -49 25 -65 21 -141
-7 -133 -61 -217 -175 -274 -209 -103 -449 36 -461 267 -5 87 8 139 51 201 68
100 162 147 284 141 52 -3 87 -11 126 -31z"/>
<path d="M509 1316 c-82 -29 -140 -84 -168 -159 -7 -17 -11 -120 -11 -253 l0
-224 1670 0 1670 0 0 228 c0 254 -5 277 -72 344 -75 75 -60 73 -568 76 l-455
3 -34 -67 c-52 -100 -155 -200 -262 -253 -181 -90 -377 -90 -557 0 -108 53
-211 152 -262 251 l-35 68 -440 0 c-334 -1 -449 -4 -476 -14z"/>
</g>
</svg>
