<?xml version="1.0" standalone="no"?>
<!DOCTYPE svg PUBLIC "-//W3C//DTD SVG 20010904//EN"
 "http://www.w3.org/TR/2001/REC-SVG-20010904/DTD/svg10.dtd">
<svg version="1.0" xmlns="http://www.w3.org/2000/svg"
 width="512.000000pt" height="512.000000pt" viewBox="0 0 512.000000 512.000000"
 preserveAspectRatio="xMidYMid meet">

<g transform="translate(0.000000,512.000000) scale(0.100000,-0.100000)"
fill="#000000" stroke="none">
<path d="M2335 4244 c-432 -43 -722 -122 -1056 -289 -371 -187 -711 -476 -986
-840 -78 -104 -207 -310 -252 -405 -31 -65 -36 -85 -36 -150 0 -65 5 -85 36
-150 110 -231 337 -538 556 -751 450 -440 957 -683 1603 -771 127 -17 594 -17
720 0 356 49 629 131 921 277 371 187 711 476 986 840 78 104 207 310 252 405
31 65 36 85 36 150 0 65 -5 85 -36 150 -45 95 -173 301 -252 405 -432 573
-996 937 -1664 1075 -184 39 -305 51 -548 54 -132 2 -258 2 -280 0z m465 -380
c207 -39 406 -126 564 -247 66 -51 194 -177 243 -241 186 -243 277 -509 277
-816 0 -371 -138 -697 -401 -950 -91 -89 -135 -123 -226 -179 -219 -134 -436
-195 -697 -195 -261 0 -478 61 -697 195 -91 56 -135 90 -226 179 -263 253
-401 579 -401 950 0 371 138 697 401 950 115 111 206 176 350 248 107 54 309
110 458 126 72 7 269 -3 355 -20z m-1750 -543 c-182 -364 -227 -774 -130
-1166 34 -135 71 -238 130 -356 22 -44 40 -83 40 -85 0 -12 -165 130 -261 226
-159 158 -320 370 -427 563 l-32 57 32 58 c106 189 267 403 422 558 94 93 257
236 264 229 1 -1 -16 -39 -38 -84z m3241 -141 c159 -158 320 -370 427 -562
l32 -58 -32 -57 c-86 -155 -213 -331 -347 -481 -83 -94 -329 -317 -339 -308
-1 2 16 40 38 85 182 364 227 774 130 1166 -34 135 -71 238 -130 356 -22 44
-40 83 -40 85 0 12 165 -130 261 -226z"/>
<path d="M2457 3519 c-336 -36 -631 -247 -773 -553 -117 -254 -117 -558 0
-812 93 -199 241 -352 441 -454 484 -247 1083 -39 1311 454 117 254 117 558 0
812 -173 373 -569 597 -979 553z m265 -380 c137 -37 256 -123 336 -243 77
-115 97 -185 97 -336 0 -151 -20 -221 -97 -336 -112 -167 -294 -264 -498 -264
-204 0 -386 97 -498 264 -77 115 -97 185 -97 336 0 151 20 221 97 335 144 216
406 312 660 244z"/>
</g>
</svg>
