<?xml version="1.0" standalone="no"?>
<!DOCTYPE svg PUBLIC "-//W3C//DTD SVG 20010904//EN"
 "http://www.w3.org/TR/2001/REC-SVG-20010904/DTD/svg10.dtd">
<svg version="1.0" xmlns="http://www.w3.org/2000/svg"
 width="1024.000000pt" height="1024.000000pt" viewBox="0 0 1024.000000 1024.000000"
 preserveAspectRatio="xMidYMid meet">
<metadata>
Created by potrace 1.13, written by Peter Selinger 2001-2015
</metadata>
<g transform="translate(0.000000,1024.000000) scale(0.100000,-0.100000)"
fill="#000000" stroke="none">
<path d="M8242 9796 c-235 -242 -900 -929 -1477 -1526 -1083 -1120 -2028
-2097 -2455 -2538 -135 -139 -246 -257 -248 -262 -2 -5 122 -138 275 -295 153
-158 277 -289 276 -292 -1 -2 -622 -645 -1380 -1429 l-1378 -1424 -315 -169
-315 -168 -447 -729 -447 -728 81 -86 c45 -47 96 -100 113 -118 l32 -33 289
190 c159 104 476 312 705 462 l416 272 164 328 164 327 1285 1328 c707 730
1328 1372 1380 1427 l95 99 280 -288 c154 -159 282 -289 285 -289 9 0 4610
4759 4610 4767 0 7 -1028 1073 -1412 1464 l-148 152 -428 -442z"/>
<path d="M1971 9979 c-99 -11 -333 -57 -343 -67 -4 -4 196 -216 443 -472 248
-256 524 -542 615 -636 l164 -172 -162 -625 -163 -626 -35 -9 c-62 -17 -658
-182 -913 -253 -137 -38 -253 -69 -257 -69 -5 0 -283 284 -619 631 -335 346
-613 631 -618 632 -4 1 -16 -34 -25 -78 -73 -339 -70 -705 9 -1040 131 -557
483 -1063 953 -1368 251 -163 533 -272 830 -322 153 -26 430 -31 590 -10 114
14 356 67 411 89 12 5 97 -77 325 -316 169 -178 354 -369 409 -426 l101 -104
178 186 178 186 -283 290 -283 291 66 67 c36 37 247 261 469 497 222 237 436
465 477 507 l74 77 -158 156 c-88 86 -149 151 -137 146 20 -10 22 -7 37 57
121 533 60 1075 -174 1556 -109 223 -247 415 -434 602 -335 334 -710 527
-1176 606 -135 22 -422 32 -549 17z"/>
<path d="M6236 3606 l-739 -733 164 -169 c91 -93 656 -678 1256 -1300 632
-655 1120 -1153 1159 -1183 84 -63 242 -142 344 -172 114 -33 353 -38 477 -11
191 43 357 135 498 276 144 144 234 300 287 496 20 74 23 108 23 270 0 172 -2
192 -28 285 -35 126 -100 261 -172 356 -61 82 -2503 2619 -2520 2619 -5 -1
-343 -331 -749 -734z"/>
</g>
</svg>
