<?xml version="1.0" standalone="no"?>
<!DOCTYPE svg PUBLIC "-//W3C//DTD SVG 20010904//EN"
 "http://www.w3.org/TR/2001/REC-SVG-20010904/DTD/svg10.dtd">
<svg version="1.0" xmlns="http://www.w3.org/2000/svg"
 width="512.000000pt" height="512.000000pt" viewBox="0 0 512.000000 512.000000"
 preserveAspectRatio="xMidYMid meet">
<metadata>
Created by potrace 1.14, written by Peter Selinger 2001-2017
</metadata>
<g transform="translate(0.000000,512.000000) scale(0.100000,-0.100000)"
fill="#000000" stroke="none">
<path d="M2376 4991 c-36 -58 -141 -417 -172 -588 -16 -90 -17 -92 -48 -98
-117 -24 -382 -120 -437 -159 -21 -14 -26 -11 -113 69 -109 101 -238 204 -363
292 l-93 64 -97 -75 c-54 -41 -124 -98 -156 -127 -51 -46 -58 -56 -53 -80 18
-90 169 -432 249 -563 l36 -60 -35 -45 c-50 -67 -154 -244 -194 -332 l-35 -77
-175 6 c-196 5 -498 -13 -516 -31 -13 -13 -47 -154 -64 -267 -6 -41 -13 -87
-16 -101 -4 -23 2 -30 65 -68 113 -67 323 -169 449 -217 64 -25 118 -47 119
-48 2 -1 8 -49 13 -107 13 -125 33 -238 61 -339 l21 -74 -23 -16 c-70 -46
-279 -222 -382 -322 l-119 -115 52 -104 c47 -93 146 -259 155 -259 2 0 53 9
112 21 161 31 329 74 454 119 l112 39 107 -102 c58 -56 150 -133 204 -171 72
-51 95 -73 91 -85 -4 -9 -21 -92 -40 -186 -37 -189 -58 -364 -53 -440 l3 -50
90 -37 c50 -21 134 -52 187 -70 87 -29 99 -31 110 -17 189 233 266 340 357
497 39 68 44 72 69 65 15 -5 134 -8 264 -8 l237 0 13 -25 c66 -131 146 -268
224 -385 127 -190 113 -176 160 -164 69 19 177 55 262 89 l82 33 0 73 0 73
-297 410 c-187 258 -303 409 -311 406 -7 -3 -59 -15 -115 -27 -142 -30 -408
-31 -547 0 -191 42 -336 101 -486 200 -323 213 -534 526 -610 907 -27 134 -25
396 4 532 57 267 173 489 356 681 120 125 235 210 391 287 227 113 404 150
665 141 91 -3 196 -12 235 -21 552 -123 961 -534 1082 -1087 25 -117 26 -428
0 -546 -24 -111 -71 -251 -114 -336 -30 -59 -32 -70 -20 -85 165 -195 676
-755 696 -763 14 -5 40 -12 56 -15 29 -4 33 0 91 94 34 54 80 132 103 175 l42
76 -78 94 c-90 109 -261 280 -356 357 -48 39 -66 60 -61 70 30 75 76 325 87
470 1 27 7 36 27 42 193 56 358 118 514 192 l108 51 -6 66 c-3 36 -18 127 -32
202 l-26 137 -55 11 c-125 26 -250 41 -450 52 -134 8 -213 16 -213 23 -1 38
-144 291 -244 430 -7 9 -1 25 18 50 70 92 274 467 300 552 6 17 -10 36 -91
110 -54 49 -124 108 -155 131 l-56 43 -84 -47 c-145 -82 -363 -235 -461 -323
l-38 -34 -97 46 c-85 41 -297 115 -373 131 -25 5 -26 10 -38 108 -20 169 -105
555 -127 577 -11 12 -401 14 -408 2z"/>
<path d="M2569 3237 c-20 -8 -53 -24 -73 -37 -37 -22 -37 -22 -18 -44 11 -11
121 -143 245 -293 234 -282 247 -303 233 -371 -8 -35 -40 -66 -211 -204 -149
-120 -162 -128 -205 -128 -68 0 -90 22 -321 317 -123 157 -227 291 -231 296
-12 19 -76 -42 -105 -100 -36 -74 -39 -174 -6 -243 34 -73 400 -611 446 -656
49 -47 137 -84 200 -84 79 0 114 16 235 107 l29 23 558 -768 c307 -422 574
-784 594 -805 20 -21 55 -50 78 -63 48 -29 134 -41 174 -26 29 11 268 201 337
266 69 66 77 141 28 251 -22 50 -57 90 -1006 1153 -168 189 -306 346 -308 351
-1 4 22 27 52 50 94 73 131 149 124 261 -6 116 -29 147 -328 446 -177 177
-279 271 -308 286 -55 26 -163 34 -213 15z m1653 -2443 c148 -104 85 -338 -94
-351 -167 -13 -274 190 -165 314 69 79 178 94 259 37z"/>
</g>
</svg>
