<?xml version="1.0" standalone="no"?>
<!DOCTYPE svg PUBLIC "-//W3C//DTD SVG 20010904//EN"
 "http://www.w3.org/TR/2001/REC-SVG-20010904/DTD/svg10.dtd">
<svg version="1.0" xmlns="http://www.w3.org/2000/svg"
 width="1077.000000pt" height="849.000000pt" viewBox="0 0 1077.000000 849.000000"
 preserveAspectRatio="xMidYMid meet">

<g transform="translate(0.000000,849.000000) scale(0.100000,-0.100000)"
fill="#000000" stroke="none">
<path d="M8542 8389 c-72 -12 -167 -45 -227 -78 -37 -21 -70 -30 -128 -34
-110 -9 -190 -32 -275 -78 -63 -33 -82 -39 -136 -39 -114 0 -252 -48 -361
-125 -66 -47 -172 -158 -232 -244 -42 -60 -52 -64 -220 -100 -216 -46 -364
-162 -498 -391 -71 -122 -118 -258 -150 -435 -5 -27 -20 -54 -49 -85 -59 -63
-95 -128 -132 -240 l-32 -95 -149 -42 c-81 -24 -158 -43 -171 -43 -76 -1 -187
-85 -237 -182 -21 -40 -31 -49 -67 -58 -24 -7 -138 -38 -254 -71 -116 -32
-221 -59 -233 -59 -55 0 -139 -68 -179 -146 -20 -39 -21 -39 -149 -72 -70 -18
-148 -40 -173 -48 -25 -9 -78 -27 -118 -40 -486 -161 -1018 -536 -1403 -989
-78 -92 -250 -314 -274 -354 -5 -9 -217 -317 -470 -684 l-460 -667 -35 2 c-71
3 -101 -2 -107 -19 -3 -10 -30 -53 -60 -95 -29 -43 -53 -84 -53 -93 0 -8 -7
-15 -15 -15 -9 0 -19 -8 -22 -17 -7 -18 -155 -236 -180 -265 -11 -12 -12 -24
-5 -50 11 -40 6 -58 -16 -58 -14 -1 -152 -186 -152 -204 0 -10 -483 -700 -497
-711 -11 -8 -12 -20 -5 -52 l9 -41 -243 -352 c-213 -308 -243 -355 -237 -380
7 -35 83 -116 188 -199 44 -35 82 -65 84 -67 3 -2 -61 -98 -161 -240 -26 -36
-30 -74 -9 -74 4 0 52 65 106 145 54 80 100 145 101 145 2 0 34 -20 71 -44
171 -110 290 -148 317 -102 6 10 113 167 238 350 178 257 234 333 255 340 16
4 34 11 42 15 8 4 119 159 246 345 127 185 239 345 247 356 47 54 158 223 158
240 0 24 35 49 59 43 14 -3 33 18 81 89 35 51 83 119 107 152 25 32 42 64 39
72 -3 8 1 14 9 14 8 0 37 36 65 79 28 44 57 85 66 91 18 16 10 73 -16 110
l-18 25 459 665 c252 366 468 675 479 686 11 12 20 25 20 29 0 3 31 48 69 99
309 417 728 750 1133 900 53 20 107 36 118 36 12 0 31 5 43 11 39 22 232 71
289 75 54 3 58 2 87 -31 25 -29 37 -35 70 -35 22 0 55 7 73 15 18 8 147 46
287 85 l255 71 27 -20 c44 -33 97 -50 167 -56 60 -4 88 1 267 54 l200 58 55
-52 c96 -90 158 -128 261 -160 49 -16 70 -32 158 -120 116 -117 228 -201 338
-254 122 -59 190 -75 328 -76 109 0 129 3 215 32 52 17 120 38 150 47 l55 15
71 -33 c129 -62 213 -81 359 -80 146 0 225 18 325 75 44 25 69 32 121 35 93 4
191 30 279 74 62 31 89 39 157 44 223 17 427 144 573 359 l45 66 75 16 c172
37 255 77 354 166 142 130 242 310 296 534 25 105 50 345 48 460 -1 64 -3 51
-10 -60 -7 -120 -40 -362 -54 -399 -4 -11 -491 -153 -498 -145 -2 2 5 45 15
94 28 137 41 362 29 528 -41 567 -253 1102 -589 1482 -45 51 -66 82 -58 86 7
3 116 35 244 70 137 38 229 68 226 74 -3 5 23 -17 58 -50 51 -48 56 -51 24
-15 -178 202 -374 325 -582 366 -107 21 -199 13 -330 -31 -58 -19 -112 -35
-119 -35 -7 0 -44 14 -81 31 -163 75 -320 101 -461 78z m194 -140 c-37 -56
-66 -97 -66 -91 0 15 121 204 127 199 2 -3 -25 -51 -61 -108z m300 26 c310
-153 615 -505 816 -940 153 -330 237 -632 279 -1003 17 -157 7 -527 -19 -672
-51 -283 -149 -511 -290 -678 -42 -49 -128 -122 -93 -79 8 10 12 19 10 21 -2
2 -47 25 -99 51 -52 26 -96 49 -98 50 -2 2 10 29 27 62 52 102 89 207 167 483
176 622 -32 1524 -476 2064 -100 122 -347 352 -483 449 -45 33 -82 62 -82 66
0 3 28 52 63 107 l63 101 62 -19 c34 -10 103 -39 153 -63z m-680 -84 c-78
-123 -98 -152 -102 -148 -3 2 23 48 57 101 34 53 64 95 66 92 2 -2 -7 -23 -21
-45z m175 7 c500 -189 962 -865 1129 -1649 149 -697 45 -1348 -272 -1703 l-43
-49 -112 56 -111 56 37 73 c51 103 153 417 186 573 40 193 45 533 10 755 -84
537 -332 1057 -647 1355 -151 143 -295 267 -365 314 l-72 49 67 106 c75 120
60 115 193 64z m-567 -80 c-33 -58 -168 -267 -171 -264 -7 6 162 276 173 276
3 0 2 -6 -2 -12z m91 -13 c84 -25 245 -111 335 -179 101 -76 274 -252 355
-362 309 -417 508 -959 556 -1514 14 -160 6 -442 -15 -580 -47 -296 -150 -543
-299 -721 l-58 -69 -154 77 -153 77 54 59 c321 347 380 1106 139 1797 -117
333 -293 626 -506 840 -145 146 -293 245 -446 298 l-51 17 86 137 c48 76 92
138 97 138 6 0 33 -7 60 -15z m-878 -444 c95 -20 183 -54 268 -105 415 -248
751 -823 866 -1481 91 -523 1 -1042 -228 -1320 -131 -159 -286 -235 -478 -235
-221 0 -437 107 -652 322 -51 50 -92 93 -90 94 1 1 146 -20 322 -47 346 -52
377 -55 457 -38 97 21 158 57 248 148 71 71 94 102 132 181 126 257 153 605
77 985 -65 322 -229 660 -426 875 -202 221 -392 319 -596 307 -76 -4 -99 -10
-162 -41 -43 -21 -103 -63 -142 -99 -93 -85 -389 -329 -418 -344 -20 -11 -23
-10 -19 5 37 182 69 282 124 394 101 204 253 342 430 392 108 30 168 31 287 7z
m1166 -186 c407 -459 638 -1150 596 -1782 -9 -135 -38 -325 -51 -339 -6 -6
-571 -165 -574 -161 -1 1 7 43 17 92 91 445 4 1023 -225 1500 -108 225 -217
390 -350 532 -39 43 -54 64 -45 68 34 13 546 154 560 154 8 1 41 -28 72 -64z
m-883 -261 c85 -57 258 -237 329 -344 211 -318 331 -718 331 -1105 0 -223 -29
-382 -97 -542 l-35 -83 -52 0 c-28 0 -121 4 -206 9 -85 6 -226 13 -312 17
l-158 6 15 27 c104 185 127 525 55 826 -76 323 -251 617 -457 771 l-78 59 290
197 c159 108 297 197 305 197 8 1 40 -15 70 -35z m-748 -343 c222 -86 429
-341 548 -677 65 -185 91 -335 91 -535 0 -325 -107 -572 -287 -664 -55 -28
-67 -30 -164 -30 -119 1 -179 19 -272 82 -66 44 -139 113 -132 125 3 4 18 8
34 8 38 0 136 37 175 65 17 12 44 27 61 33 30 10 32 9 38 -18 5 -29 49 -80 68
-80 6 0 20 10 30 23 16 18 19 31 14 70 -3 28 -1 47 5 47 5 0 31 20 58 45 89
84 148 264 139 430 -4 76 -3 82 13 72 27 -17 63 24 62 69 -2 61 -57 119 -91
97 -17 -10 -21 -6 -37 45 -58 187 -217 388 -351 443 -48 20 -52 25 -57 62 -4
26 -16 50 -35 70 -29 29 -30 29 -56 11 -25 -15 -27 -22 -25 -68 l3 -50 -64
-23 c-46 -16 -85 -22 -135 -22 -44 1 -87 -4 -115 -15 -25 -10 -58 -21 -73 -26
-28 -9 -28 -8 -21 23 3 18 17 61 31 97 60 161 152 261 283 307 54 19 194 10
262 -16z m-75 -285 l6 -37 -39 3 c-38 3 -39 4 -42 45 -3 37 0 42 20 45 31 5
48 -11 55 -56z m-27 -201 c122 -102 234 -317 269 -519 15 -81 13 -258 -3 -331
-12 -56 -59 -175 -69 -175 -3 0 6 26 19 58 66 163 53 430 -30 640 -55 140
-144 270 -235 346 -60 50 -61 51 -25 33 17 -9 50 -32 74 -52z m279 -27 c95
-118 167 -288 192 -450 15 -102 8 -313 -12 -332 -11 -11 -148 -56 -171 -56 -3
0 -2 17 3 38 12 52 11 236 -2 308 -15 85 -56 208 -99 294 -35 69 -108 175
-134 192 -6 4 -8 10 -5 13 5 5 152 51 171 54 4 1 30 -27 57 -61z m-254 -50
c43 -55 70 -99 35 -58 -11 14 -39 46 -61 72 -22 26 -34 45 -27 42 7 -3 31 -28
53 -56z m-32 -23 c151 -186 243 -545 196 -764 -9 -43 -15 -51 -42 -60 -67 -21
-431 -121 -433 -118 -1 1 1 56 5 122 15 253 -61 508 -206 688 -30 38 -53 70
-51 71 13 10 438 124 458 123 17 -1 39 -21 73 -62z m-688 22 c140 -58 275
-238 348 -462 36 -111 50 -202 48 -325 -2 -136 -16 -210 -57 -290 -58 -116
-131 -164 -242 -161 -61 2 -162 37 -176 60 -4 6 12 15 36 21 24 6 57 15 74 21
17 5 48 12 68 14 77 10 147 72 193 170 27 57 28 67 28 210 0 129 -3 161 -23
225 -57 183 -164 333 -282 395 -44 24 -138 36 -165 22 -26 -14 -208 -67 -213
-62 -7 7 31 71 66 110 72 80 182 100 297 52z m822 -159 c17 -34 34 -74 37 -88
l6 -25 -12 25 c-6 14 -27 56 -46 93 -18 38 -30 67 -25 64 4 -3 22 -34 40 -69z
m-665 -110 c58 -80 79 -123 113 -228 46 -144 49 -391 6 -404 -98 -30 -765
-215 -767 -214 -1 2 2 23 6 48 35 177 -38 442 -163 593 -21 27 -38 50 -36 52
7 6 754 213 775 214 14 1 34 -18 66 -61z m737 -78 c0 -8 -7 1 -14 20 -18 46
-17 64 0 25 8 -16 14 -37 14 -45z m358 8 c15 -45 9 -64 -20 -72 -28 -7 -37 2
-48 53 -11 51 -5 63 29 59 21 -2 30 -11 39 -40z m-1957 -98 c37 -36 81 -92 99
-125 62 -114 111 -290 111 -401 0 -114 -39 -244 -88 -296 l-26 -28 -45 27
c-25 14 -48 28 -50 30 -3 2 5 16 16 31 35 48 50 85 63 160 21 113 -7 257 -73
388 -34 67 -119 160 -172 187 l-43 22 30 52 29 51 41 -16 c23 -10 72 -46 108
-82z m1607 38 c-3 -7 -5 -2 -5 12 0 14 2 19 5 13 2 -7 2 -19 0 -25z m10 -40
c-3 -8 -6 -5 -6 6 -1 11 2 17 5 13 3 -3 4 -12 1 -19z m10 -50 c-3 -7 -5 -2 -5
12 0 14 2 19 5 13 2 -7 2 -19 0 -25z m10 -125 c-2 -16 -4 -3 -4 27 0 30 2 43
4 28 2 -16 2 -40 0 -55z m-1699 21 c43 -58 76 -131 98 -214 22 -81 23 -245 3
-265 -8 -7 -88 -34 -179 -59 -91 -26 -173 -49 -182 -52 -16 -5 -17 2 -11 73
10 141 -48 329 -132 422 l-34 37 177 51 c97 29 188 52 202 52 18 0 34 -12 58
-45z m-419 -99 c90 -103 146 -305 125 -457 l-6 -46 -67 -17 c-478 -127 -989
-503 -1375 -1014 l-78 -103 -47 45 c-89 86 -327 252 -410 287 -17 7 -31 17
-31 23 0 5 30 51 67 101 244 330 583 667 839 832 249 161 598 314 832 363 118
26 116 26 151 -14z m2118 -22 c-3 -10 -5 -2 -5 17 0 19 2 27 5 18 2 -10 2 -26
0 -35z m-10 -85 c-3 -8 -6 -5 -6 6 -1 11 2 17 5 13 3 -3 4 -12 1 -19z m63
-255 c0 -18 -3 -33 -7 -33 -5 0 -17 -3 -29 -6 -15 -4 -23 1 -32 21 -18 40 -15
50 21 60 38 12 47 4 47 -42z m-3480 -226 c0 -2 -10 -12 -22 -23 l-23 -19 19
23 c18 21 26 27 26 19z m-202 -199 c-137 -148 -220 -246 -328 -390 -66 -90
-90 -113 -90 -89 0 11 121 170 199 261 53 63 331 350 339 350 2 0 -52 -60
-120 -132z m-355 -534 c128 -65 351 -220 424 -296 l33 -34 -363 -525 c-199
-288 -414 -599 -477 -690 l-114 -166 -67 57 c-92 80 -247 188 -357 251 -51 29
-95 56 -98 61 -6 9 930 1378 942 1378 2 0 37 -16 77 -36z m-1050 -1380 c146
-74 404 -253 536 -372 l55 -48 -54 -77 -54 -77 -50 48 c-118 114 -372 292
-528 371 l-87 44 17 29 c17 29 17 29 22 6 13 -54 105 -16 98 40 -4 34 -41 42
-71 15 -15 -13 -13 -7 7 19 30 40 33 40 109 2z m-67 -39 c7 -18 -13 -45 -33
-45 -19 0 -28 27 -13 45 16 19 39 19 46 0z m379 -119 c11 -8 16 -15 10 -16 -5
0 -23 12 -40 26 -31 26 -6 18 30 -10z m-197 -143 c111 -73 294 -214 320 -245
9 -12 10 -18 2 -23 -6 -4 -34 15 -63 42 -103 97 -359 275 -482 335 -25 12 -45
28 -45 36 0 18 118 -46 268 -145z m-245 70 c162 -84 490 -318 555 -395 9 -12
-4 -38 -74 -139 -55 -81 -91 -123 -102 -122 -9 1 -24 -3 -33 -7 -12 -7 -23 -2
-40 16 -70 75 -330 260 -486 346 -40 22 -73 44 -73 49 0 15 11 11 104 -42 161
-92 284 -179 478 -337 15 -13 28 -19 28 -14 0 33 -380 306 -545 392 -44 23
-82 44 -84 46 -2 2 11 27 30 55 l33 52 9 -27 c8 -23 13 -27 34 -21 40 10 65
39 61 71 -2 25 -8 29 -32 29 -16 0 -31 -5 -33 -11 -2 -6 7 -10 19 -10 30 1 37
-38 10 -53 -25 -13 -42 4 -40 39 2 23 71 130 84 130 3 0 47 -21 97 -47z m297
-156 c0 -5 -13 1 -30 13 -16 12 -30 24 -30 26 0 3 14 -3 30 -13 17 -9 30 -21
30 -26z m-372 -228 c142 -87 372 -264 394 -304 5 -7 0 -23 -11 -36 l-20 -24
-48 46 c-107 102 -305 244 -328 235 -8 -3 -12 0 -9 7 4 12 -68 59 -166 107
-25 12 -46 24 -48 25 -2 2 4 15 13 29 l17 25 69 -35 c38 -19 100 -53 137 -75z
m-131 -25 c34 -19 64 -38 67 -43 3 -5 -21 -47 -54 -95 -33 -47 -60 -89 -60
-94 0 -12 44 -36 47 -25 2 5 31 48 64 96 l60 87 72 -49 c94 -63 175 -127 242
-190 l54 -50 -112 -164 c-61 -89 -200 -289 -307 -443 -234 -336 -214 -324
-344 -212 -89 78 -271 203 -384 264 -67 36 -87 54 -62 54 38 0 345 -201 478
-312 45 -38 82 -64 82 -59 0 40 -470 366 -581 403 -7 2 122 199 296 451 l308
446 36 -15 c20 -8 64 -31 98 -50z m-14 -219 c-3 -9 -8 -14 -10 -11 -3 3 -2 9
2 15 9 16 15 13 8 -4z m-639 -725 c110 -57 260 -160 370 -251 l96 -81 -107
-156 c-185 -271 -373 -537 -381 -540 -5 -1 -28 16 -53 38 -107 99 -366 276
-469 321 -19 9 -28 19 -25 28 13 35 470 681 481 681 7 0 47 -18 88 -40z m-475
-726 c147 -81 408 -273 434 -319 5 -10 -38 21 -96 68 -115 93 -246 183 -349
241 -63 35 -78 46 -61 46 3 0 36 -16 72 -36z m26 -354 c-95 -139 -125 -177
-125 -154 0 12 223 325 228 319 3 -3 -43 -77 -103 -165z"/>
<path d="M1180 2071 c0 -5 -40 -68 -90 -139 -87 -125 -101 -152 -81 -152 11 0
201 273 201 289 0 6 -7 11 -15 11 -8 0 -15 -4 -15 -9z"/>
<path d="M10175 7900 c10 -11 20 -20 23 -20 3 0 -3 9 -13 20 -10 11 -20 20
-23 20 -3 0 3 -9 13 -20z"/>
<path d="M10200 7866 c0 -2 8 -10 18 -17 15 -13 16 -12 3 4 -13 16 -21 21 -21
13z"/>
<path d="M10230 7826 c0 -2 8 -10 18 -17 15 -13 16 -12 3 4 -13 16 -21 21 -21
13z"/>
<path d="M10296 7738 c20 -32 39 -58 41 -58 7 0 -29 58 -55 88 -13 15 -6 1 14
-30z"/>
<path d="M10360 7630 c6 -11 13 -20 16 -20 2 0 0 9 -6 20 -6 11 -13 20 -16 20
-2 0 0 -9 6 -20z"/>
<path d="M10535 7275 c66 -196 97 -298 111 -364 10 -45 19 -79 22 -77 16 17
-82 361 -122 432 -10 16 -14 20 -11 9z"/>
<path d="M10672 6790 c0 -14 2 -19 5 -12 2 6 2 18 0 25 -3 6 -5 1 -5 -13z"/>
<path d="M10682 6740 c0 -14 2 -19 5 -12 2 6 2 18 0 25 -3 6 -5 1 -5 -13z"/>
<path d="M10692 6670 c0 -14 2 -19 5 -12 2 6 2 18 0 25 -3 6 -5 1 -5 -13z"/>
<path d="M10701 6574 c0 -11 3 -14 6 -6 3 7 2 16 -1 19 -3 4 -6 -2 -5 -13z"/>
<path d="M10713 6445 c0 -22 2 -30 4 -17 2 12 2 30 0 40 -3 9 -5 -1 -4 -23z"/>
</g>
</svg>
