<?xml version="1.0" standalone="no"?>
<!DOCTYPE svg PUBLIC "-//W3C//DTD SVG 20010904//EN"
 "http://www.w3.org/TR/2001/REC-SVG-20010904/DTD/svg10.dtd">
<svg version="1.0" xmlns="http://www.w3.org/2000/svg"
 width="500.000000pt" height="399.000000pt" viewBox="0 0 500.000000 399.000000"
 preserveAspectRatio="xMidYMid meet">

<g transform="translate(0.000000,399.000000) scale(0.100000,-0.100000)"
fill="#000000" stroke="none">
<path d="M3387 3713 c-3 -5 -5 -49 -5 -98 l0 -90 -35 -3 c-34 -3 -36 -5 -39
-44 l-3 -40 -83 -1 c-90 0 -102 -7 -100 -53 4 -82 -5 -560 -11 -569 -3 -5 -8
150 -11 345 l-5 355 -156 3 -156 2 -6 -67 c-8 -85 -7 -879 2 -1071 l6 -142
-22 0 c-21 0 -23 -5 -23 -50 l0 -50 -477 0 c-263 0 -495 -3 -515 -6 l-38 -7 0
77 c0 42 -3 76 -7 77 -34 2 -157 6 -247 7 -176 3 -115 12 95 15 l194 2 0 45 0
45 -800 1 c-440 1 -806 -1 -813 -4 -7 -2 -12 -22 -12 -48 l0 -44 168 -2 c166
-1 167 -1 79 -11 l-87 -10 2 -245 c3 -209 5 -245 18 -247 8 -2 71 -21 140 -43
69 -22 179 -56 245 -77 130 -40 226 -70 350 -109 62 -20 101 -26 172 -26 l92
0 3 -37 c2 -31 7 -39 26 -41 12 -2 20 -8 17 -13 -4 -5 -1 -9 4 -9 6 0 11 -22
11 -51 l0 -51 136 4 c146 4 154 7 154 61 0 16 -6 30 -15 32 -46 15 -51 18 -27
22 12 3 22 12 22 21 1 9 9 27 19 39 l19 22 523 1 c288 0 530 1 537 0 8 0 12
-16 12 -45 l0 -45 180 0 180 0 0 555 c0 359 3 555 10 555 6 0 11 -141 12 -387
l3 -388 90 -3 90 -3 -3 -397 c-3 -330 -6 -398 -18 -405 -8 -4 -14 -15 -14 -22
0 -8 -5 -15 -10 -15 -6 0 -109 -13 -228 -30 -270 -37 -640 -86 -752 -100 -47
-6 -146 -20 -222 -30 -75 -11 -178 -24 -230 -30 -51 -6 -108 -13 -125 -16
l-33 -6 0 -124 0 -124 1360 0 1360 0 0 250 c0 243 -1 250 -20 250 -19 0 -20 7
-20 94 0 66 4 96 13 100 10 5 10 7 0 12 -7 3 -13 11 -13 17 0 8 4 7 12 -1 7
-7 22 -12 35 -12 22 0 23 3 23 90 0 90 0 90 -26 90 -14 0 -23 4 -20 9 3 5 15
7 26 4 11 -3 20 -1 20 5 0 5 -16 13 -35 16 l-35 7 -1 732 c0 403 0 756 1 785
1 29 -3 59 -8 65 -6 7 -10 16 -10 20 -1 16 -454 497 -463 491 -5 -3 -9 2 -9
10 0 14 -26 16 -205 16 l-204 0 -3 98 c-3 97 -3 97 -30 100 -14 2 -28 -1 -31
-5z m863 -1393 l0 -160 -420 0 -420 0 0 160 0 160 420 0 420 0 0 -160z m-3739
-31 c-16 -6 -28 -6 -35 1 -7 7 1 10 25 9 32 0 33 -1 10 -10z m231 4 c-40 -2
-103 -2 -140 0 -37 2 -4 3 73 3 77 0 107 -2 67 -3z m121 0 c-7 -2 -19 -2 -25
0 -7 3 -2 5 12 5 14 0 19 -2 13 -5z m70 0 c-7 -2 -21 -2 -30 0 -10 3 -4 5 12
5 17 0 24 -2 18 -5z m64 1 c-3 -3 -12 -4 -19 -1 -8 3 -5 6 6 6 11 1 17 -2 13
-5z m3413 -1009 c0 -62 -1 -63 -29 -67 l-29 -4 -1 71 -1 72 30 -5 c30 -4 30
-5 30 -67z m-1611 -554 c22 -14 26 -96 7 -126 l-16 -25 -181 0 c-105 0 -188 4
-200 10 -15 9 -19 22 -19 68 0 32 5 63 12 70 14 14 375 17 397 3z m1241 -10
c5 -11 10 -40 10 -65 0 -72 -12 -76 -218 -76 -100 0 -181 4 -193 10 -15 9 -19
22 -19 68 0 32 5 63 12 70 9 9 68 12 205 12 180 0 193 -1 203 -19z"/>
<path d="M3440 2421 c0 -5 7 -26 16 -47 10 -25 14 -51 10 -76 -6 -37 -5 -38
23 -38 35 0 45 26 22 53 -11 14 -12 22 -4 35 11 19 0 61 -20 74 -16 11 -47 10
-47 -1z"/>
<path d="M3602 2418 c-6 -6 -12 -15 -12 -19 0 -10 61 5 63 16 3 15 -36 18 -51
3z"/>
<path d="M3725 2400 c-29 -5 -30 -7 -30 -58 l-1 -52 56 0 56 0 1 58 c1 57 1
59 -25 58 -15 0 -40 -3 -57 -6z"/>
<path d="M3835 2350 l0 -60 45 4 c25 2 51 4 58 5 19 2 14 21 -5 22 -15 0 -15
2 2 9 19 8 19 8 -5 18 l-25 11 23 0 c18 1 23 6 20 24 -3 19 -10 22 -58 25
l-55 3 0 -61z m32 8 c-3 -8 -6 -5 -6 6 -1 11 2 17 5 13 3 -3 4 -12 1 -19z m33
-33 c0 -1 -9 -5 -20 -8 -12 -3 -20 0 -20 8 0 8 8 11 20 8 11 -3 20 -7 20 -8z"/>
<path d="M3970 2348 l0 -58 55 0 c37 0 55 4 56 13 5 67 4 97 -3 98 -4 1 -30 2
-58 3 l-50 1 0 -57z"/>
<path d="M4108 2398 c-3 -7 -6 -34 -7 -60 -2 -46 -1 -47 28 -46 28 1 30 4 34
47 l3 46 2 -47 c2 -44 4 -48 27 -48 29 0 34 16 8 23 -17 4 -17 5 0 6 9 0 17 6
17 11 0 6 -8 10 -17 11 -16 0 -15 1 2 8 19 8 19 8 0 19 -18 10 -18 11 -2 12 9
0 17 4 17 9 0 12 -43 22 -50 11 -3 -5 -11 -5 -20 0 -21 13 -37 12 -42 -2z"/>
<path d="M3563 2369 c-29 -11 -53 -26 -53 -34 0 -7 16 -22 36 -34 40 -24 38
-36 -9 -50 l-32 -9 30 -1 c34 -1 76 18 83 36 2 7 -13 23 -33 35 -35 20 -36 22
-19 35 10 7 22 13 28 13 5 0 2 -6 -7 -13 -16 -11 -15 -14 12 -30 l29 -17 4 30
c3 22 1 30 -11 30 -9 1 -2 7 14 15 29 13 29 13 5 14 -14 0 -49 -9 -77 -20z"/>
<path d="M3608 2247 c-22 -17 -7 -41 26 -43 14 0 26 0 26 2 0 1 -4 14 -10 28
-11 29 -18 31 -42 13z"/>
<path d="M3690 2244 c0 -20 19 -27 36 -13 13 10 17 10 24 0 5 -9 17 -11 35 -7
21 5 24 10 16 20 -16 18 -111 19 -111 0z"/>
<path d="M3818 2253 c7 -3 16 -2 19 1 4 3 -2 6 -13 5 -11 0 -14 -3 -6 -6z"/>
<path d="M3860 2238 c0 -19 2 -20 10 -8 7 10 12 12 18 4 12 -18 42 -12 42 8 0
20 -16 24 -23 6 -4 -10 -7 -10 -18 0 -19 18 -29 15 -29 -10z"/>
<path d="M3940 2240 c0 -22 7 -25 29 -11 16 10 6 31 -15 31 -8 0 -14 -9 -14
-20z"/>
<path d="M3990 2249 c0 -5 5 -7 10 -4 6 3 10 -1 10 -9 0 -13 15 -15 88 -13 70
2 87 5 87 17 0 22 -76 24 -92 2 -12 -14 -13 -14 -13 1 0 20 -16 23 -23 5 -4
-10 -6 -10 -6 0 -1 15 -61 17 -61 1z m140 -9 c0 -5 -2 -10 -4 -10 -3 0 -8 5
-11 10 -3 6 -1 10 4 10 6 0 11 -4 11 -10z"/>
<path d="M3820 2230 c0 -5 5 -10 11 -10 5 0 7 5 4 10 -3 6 -8 10 -11 10 -2 0
-4 -4 -4 -10z"/>
<path d="M3437 2223 c-13 -12 -7 -23 12 -23 26 0 51 10 51 21 0 10 -53 12 -63
2z"/>
</g>
</svg>
